<svg width="52" height="32" viewBox="0 0 52 32" fill="none" xmlns="http://www.w3.org/2000/svg">
<path d="M43.1492 18.2275C42.3085 17.1658 42.549 16.6935 43.1492 15.7445C43.16 15.7337 50.0998 6.144 50.8148 2.89183L50.8192 2.88966C51.1745 1.7045 50.8192 0.833496 49.101 0.833496H43.4157C41.9683 0.833496 41.301 1.581 40.9435 2.41733C40.9435 2.41733 38.0488 9.34633 33.9538 13.8378C32.6322 15.1357 32.0212 15.5517 31.2997 15.5517C30.9443 15.5517 30.3918 15.1357 30.3918 13.9505V2.88966C30.3918 1.46833 29.9867 0.833496 28.7885 0.833496H19.8488C18.941 0.833496 18.4015 1.4965 18.4015 2.114C18.4015 3.46166 20.449 3.7715 20.6613 7.56316V15.79C20.6613 17.5927 20.3342 17.9242 19.6083 17.9242C17.6757 17.9242 12.9848 10.967 10.205 3.0045C9.64383 1.45966 9.09567 0.835663 7.6375 0.835663H1.95C0.327167 0.835663 0 1.58316 0 2.4195C0 3.89716 1.93267 11.2443 8.98733 20.951C13.689 27.5767 20.3103 31.1668 26.3337 31.1668C29.9542 31.1668 30.3962 30.3695 30.3962 28.998C30.3962 22.667 30.069 22.069 31.8825 22.069C32.7232 22.069 34.1705 22.485 37.5505 25.6808C41.4137 29.4703 42.0485 31.1668 44.2108 31.1668H49.8962C51.5168 31.1668 52.338 30.3695 51.8657 28.7965C50.7845 25.488 43.4785 18.6825 43.1492 18.2275Z" fill="#6B9D52"/>
</svg>
