<svg width="326" height="94" fill="none" xmlns="http://www.w3.org/2000/svg"><path d="M27.858 94.156h-1.721V0h1.721v94.156zm-18.664 0H7.472V0h1.722v94.156zm-7.472 0H0V0h1.722v94.156zm22.386 0h-5.443V0h5.443v94.156zm-7.442 0h-5.474V0h5.474v94.156zm41.041 0h-1.721V0h1.722v94.156zm-3.75 0h-1.722V0h1.722v94.156zm-3.721 0h-1.722V0h1.722v94.156zm-14.945 0h-5.442V0h5.442v94.156zm11.224 0h-5.474V0h5.474v94.156zm14.905 0h-1.722V0h1.722v94.156zm26.136 0h-1.722V0h1.722v94.156zm-14.944 0H70.89V0h1.722v94.156zm11.194 0h-5.443V0h5.442v94.156zm-14.915 0h-5.473V0h5.473v94.156zm33.57 0h-1.722V0h1.722v94.156zm-3.72 0h-1.723V0h1.722v94.156zm7.472 0h-1.753V0h1.753v94.156zm-11.224 0h-5.442V0h5.442v94.156zm22.416 0h-5.473V0h5.473v94.156zm3.713 0h-1.722V0h1.722v94.156zm26.136 0h-1.722V0h1.722v94.156zm-14.944 0h-1.722V0h1.722v94.156zm11.193 0h-5.442V0h5.442v94.156zm-14.914 0h-5.474V0h5.474v94.156zm22.378 0h-1.722V0h1.722v94.156zm18.664 0h-1.721V0h1.721v94.156zm7.472 0h-1.722V0h1.722v94.156zm-11.192 0h-5.474V0h5.474v94.156zm-7.473 0h-5.474V0h5.474v94.156zm44.763 0h-1.722V0h1.722v94.156zm-14.914 0h-1.722V0h1.722v94.156zm18.665 0h-1.722V0h1.722v94.156zm-22.417 0h-5.442V0h5.442v94.156zm11.225 0h-5.474V0h5.474v94.156zm33.569 0h-1.722V0h1.722v94.156zm-14.945 0h-1.722V0h1.722v94.156zm-3.72 0h-1.722V0h1.722v94.156zm11.193 0h-5.443V0h5.443v94.156zm14.944 0h-5.473V0h5.473v94.156zm3.712 0h-1.722V0h1.722v94.156zm26.137 0h-1.722V0h1.722v94.156zm-14.944 0h-1.722V0h1.722v94.156zm11.193 0h-5.443V0h5.443v94.156zm-14.914 0h-5.474V0h5.474v94.156zm41.042 0h-1.722V0h1.722v94.156zm-11.193 0h-1.722V0h1.722v94.156zm3.721 0h-1.722V0h1.722v94.156zm-7.473 0h-5.442V0h5.442v94.156zm22.417 0h-5.473V0h5.473v94.156zm29.849 0h-1.722V0h1.722v94.156zm-18.665 0h-1.722V0h1.722v94.156zm-7.472 0h-1.722V0h1.722v94.156zm22.386 0h-5.443V0h5.443v94.156zm-7.442 0h-5.474V0h5.474v94.156z" fill="#000"/></svg>