<svg width="69" height="77" fill="none" xmlns="http://www.w3.org/2000/svg"><path fill-rule="evenodd" clip-rule="evenodd" d="M34.473 1.208c18.48 0 33.46 15.09 33.46 33.706 0 18.615-14.98 33.706-33.46 33.706S1.013 53.53 1.013 34.914c0-18.615 14.98-33.706 33.46-33.706z" fill="#FEFEFE"/><path fill-rule="evenodd" clip-rule="evenodd" d="M34.473.239c19.008 0 34.423 15.528 34.423 34.675 0 19.148-15.415 34.676-34.423 34.676C15.465 69.59.05 54.062.05 34.914.05 15.767 15.465.239 34.473.239zm0 1.396c18.243 0 33.037 14.903 33.037 33.279 0 18.376-14.794 33.279-33.037 33.279-18.242 0-33.036-14.903-33.036-33.28 0-18.375 14.794-33.278 33.036-33.278z" fill="#2B2A29"/><path fill-rule="evenodd" clip-rule="evenodd" d="M44.391 51.003c-1.17.506-2.346.195-3.389-.388-1.395-.78-2.025-2.27-2.111-3.787a3.4 3.4 0 001.077.182c.719-.003 1.39-.26 1.854-.87l.092-.12.057-.146c.188-.475.169-.924.012-1.324h-.001a2.015 2.015 0 00-.813-.955 1.314 1.314 0 01-.182-.161.527.527 0 01-.162-.372c.004-.18.092-.389.24-.605.098-.144.224-.288.37-.427.21-.197.47-.388.778-.55 2.02-.767 4.496-.604 6.501 1.085 1.08.91 1.403 2.123 1.328 3.513-.228 2.192-2.65 3.519-4.697 2.703-.49-.195-1.46-.817-1.964-.532-.268.15-.385.595-.189.87.301.423.731.493 1.145.76.637.41.678.855.054 1.124zm.072-5.43c-.509.15-.996.925-.361 1.033 1.323.224.995.428 1.54.517.806.13 1-.675.48-1.214-.326-.338-1.05-.514-1.659-.335zM27.12 27.274c-.122 2.546.05 4.827 1.375 6.598.782 1.044 3.055.21 3.175-1.446.251-2.191.162-3.51.666-5.589.559-2.303-.73-2.936-1.968-3.333-1.263-.407-3.102.717-3.248 3.77zM30 16.358a2.6 2.6 0 012.537 2.659 2.597 2.597 0 01-2.639 2.555 2.6 2.6 0 01-2.537-2.658 2.597 2.597 0 012.64-2.556zm-9.74 4.997c.36-2.104.681-3.157 2.87-3.453 2.164-.004 2.77 1.412 3.042 3.322.196 2.444.096 4.945-.4 7.332-.505 2.3-1.242 4.558-2.464 6.607-.937 1.453-2.114 2.463-3.89 2.666-2.037.128-4.128-.74-5.86-1.735l-.165-.098-.163-.1-.16-.101-.156-.102-.153-.103-.15-.103-.142-.103-.405-.311c-1.45-1.232-2.459-2.643-2.85-4.511-.255-1.725.313-3.168 1.492-4.535 1.362-1.58 4.499-2.63 5.801-.839.77 1.11 1.29 5.26 2.87 5.217 1.31-.302 1.083-2.993 1.064-3.952-.052-1.704-.413-3.388-.18-5.098z" fill="#2B2A29"/><path fill-rule="evenodd" clip-rule="evenodd" d="M35.375 19.545c.379-.922.202-1.812.914-2.604.838-.932 2.08-1.41 3.42-1.031 1.328.535 1.55 1.323.903 2.582a13.12 13.12 0 00-.818 2.041c-.277.872-.046 1.403 1.021 1.702 2.352.745 1.436 3.479-.95 3.375-.993-.043-1.29.635-1.41 1.415-.212 1.371-.209 2.88-.132 3.88.143 1.878-.074 2.7-1.464 2.939-2.733.469-3.878-1.763-3.907-3.8-.017-1.271.375-2.919.848-4.45.3-.97-.58-1.587-1.2-1.978-.943-.595-.669-2.662 1.185-2.732.786-.03 1.131-.222 1.59-1.34z" fill="#2B2A29"/><path fill-rule="evenodd" clip-rule="evenodd" d="M45.238 30.63l.155.062.14.064.137.07.136.076.132.078.128.078.123.077.117.073.11.069.104.062.097.053.095.043.096.03.117.01.15-.055.116-.16.029-.171-.012-.139-.03-.127-.044-.13-.057-.134-.07-.14-.08-.143-.093-.145-.103-.144-.112-.141-.121-.136-.13-.127-.14-.115-.147-.101-.155-.084-.17-.064-.295-.037-.279.062-.24.15-.179.235-.077.306.07.306.197.235.285.154zm-2.315-8.388l.024-.073.035-.096.04-.094.046-.094.05-.093.054-.092.06-.091.064-.091.07-.09.073-.088.078-.087.082-.087.087-.084.092-.084.095-.082.097-.078.3-.214.324-.198.35-.182.375-.164.396-.145.415-.125.432-.104.447-.081.458-.058.468-.033.476-.008.481.019.484.046.486.075.483.105.48.135.474.166.466.198.456.232.444.265.428.3.413.337.394.373.373.411.35.45.327.49.298.532.27.573.24.617.206.661.17.708.135.757.032.239.028.242.024.243.02.243.014.245.01.245.006.245.002.246-.003.246-.007.247-.012.247-.015.247-.02.247-.023.247-.028.248-.03.247-.036.247-.04.246-.043.247-.047.245-.05.246-.055.245-.058.244-.061.243-.065.243-.069.241-.072.241-.075.24-.08.239-.081.237-.086.237-.088.234-.093.233-.095.223-.096.213-.099.203-.1.193-.102.183-.104.174-.106.164-.108.155-.108.146-.111.136-.112.128-.114.119-.115.11-.117.1-.118.093-.12.085-.122.077-.124.069-.125.06-.128.053-.129.046-.131.038-.133.03-.136.023-.138.015-.14.008-.143.001-.145-.007-.147-.014-.15-.021-.15-.03-.164-.038-.16-.044-.156-.051-.154-.057-.15-.062-.15-.067-.146-.072-.144-.077-.143-.08-.141-.085-.14-.089-.138-.091-.138-.095-.136-.097-.136-.1-.136-.101-.136-.103-.135-.104c-1.423-1.1-3.406-1.657-5.133-2.044-1.5-.328-3.422-.525-4.18-2.85-.516-2.5.53-3.902 1.45-4.772.704-.666 1.894-1.223 3.138-.963 1.352.28 1.949 1.54 3.027 2.257.7.334 1.172-.103 1.67-.76l.082-.194.058-.174.04-.175.026-.177.009-.176-.007-.173-.023-.17-.037-.168-.052-.163-.066-.157-.079-.152-.092-.147-.104-.14-.116-.135-.127-.128-.14-.121-.15-.115-.16-.108-.172-.1-.182-.093-.193-.085-.202-.077-.212-.069-.222-.059-.232-.05-.24-.04-.25-.031-.26-.02-.267-.01-.276.001-.285.013-.286.024-.2.01-.186-.012-.176-.033-.167-.052-.156-.07-.144-.085-.131-.1-.118-.112-.103-.124-.087-.134-.07-.141-.055-.148-.037-.154-.018-.157v-.161l.017-.152zm-13.53 24.79l.115.139.087.111.085.114.082.114.079.116.075.116.073.118.07.118.066.12.063.12.06.121.058.123.054.123.05.124.047.125.044.126.041.127.056.194.05.195.045.195.038.196.032.197.026.196.02.197.014.196.008.196.002.196-.005.195-.01.194-.016.194-.022.191-.028.191-.035.19-.04.187-.046.186-.053.184-.058.182-.064.18-.07.176-.077.175-.082.172-.088.169-.095.166-.1.162-.106.16-.112.156-.118.152-.125.148-.13.145-.12.124-.125.12-.13.118-.135.114-.139.11-.143.107-.147.104-.151.099-.155.096-.158.091-.16.088-.165.083-.166.078-.17.075-.17.07-.174.065-.175.061-.177.056-.177.052-.18.046-.18.04-.18.037-.18.03-.182.026-.181.02-.18.015-.181.01-.18.003-.179-.002-.177-.008-.176-.014-.175-.02-.163-.023-.163-.029-.162-.034-.16-.038-.16-.044-.157-.049-.156-.054-.155-.058-.153-.064-.15-.068-.15-.074-.146-.078-.144-.083-.142-.088-.14-.093-.136-.099-.134-.102-.13-.108-.129-.113-.124-.117-.122-.123-.117-.127-.115-.132-.11-.137-.107-.142-.103-.146-.099-.152-.094-.157-.09-.16-.087-.167-.08-.172-.076-.173-.12-.326-.084-.318-.054-.311-.024-.305.004-.298.03-.29.055-.281.079-.273.1-.263.122-.252.141-.24.159-.229.175-.215.19-.201.202-.186.214-.17.224-.153.232-.135.24-.117.244-.097.247-.077.248-.056.25-.034.247-.012.243.012.24.035.233.058.227.084.218.11.21.137.198.164.292.301c.648-.315.973-.709.977-1.445.005-.75-.306-1.39-.738-1.988-.564-.78-2.178-1.982-2.99-2.484-.613 1.191-2.455 1.92-3.542.622-.975-1.165-.245-2.857 1.244-3.267.961-.265 1.531-.333 2.62-1.087.53-.368 1.186-1.123 1.44-1.04-.164.501-.225 1.11-.142 1.863a8.78 8.78 0 00.574 2.265c.43 1.077 1.083 2.093 1.927 2.82.86.74 1.906 1.184 3.11 1.121zm11.435-9.899c1.952-.47 3.307-.21 4.163.638.834.826.724 2.025-1.295 2.174-1.327.099-2.351.666-3.007 1.286-1.062 1.003-1.423 2.376-.1 3.294.32.2.53.542.371.945-.51.67-1.597.508-2.372.011-3.342-2.142-1.66-7.409 2.24-8.348zm-4.772 9.454c.36 1.267-.28 2.031-1.279 2.122-1.343.121-1.78-.75-1.934-1.951-.231-1.811.266-2.926.81-4.797.424-1.465 2.39-1.488 2.107.125-.264 1.508-.198 2.76.296 4.501z" fill="#2B2A29"/><path fill-rule="evenodd" clip-rule="evenodd" d="M27.97 39.177c-.072 1.153.627 1.849.975 1.985 1.514.596 2.066-.716 1.439-3.636-.162-.754.31-1.12 1.056-1.216.782-.033.977.074 1.143.923.207 1.059.179 2.805.056 3.777-.345 2.714-.932 4.176-2.091 4.646-3.231 1.31-5.378-2.189-5.682-4.95-.172-1.555.396-2.185 1.13-2.515 1.034-.464 2.076-.674 1.973.986zm7.37-3.071a1.836 1.836 0 011.892 1.777 1.838 1.838 0 01-1.764 1.907 1.836 1.836 0 01-1.893-1.777 1.838 1.838 0 011.764-1.907zm21.508-20.519a2.82 2.82 0 012.81 2.83 2.82 2.82 0 01-2.81 2.83 2.82 2.82 0 01-2.809-2.83 2.82 2.82 0 012.81-2.83zm-1.15 4.374v-3.084h1.357c.273 0 .48.028.623.083a.68.68 0 01.34.293.88.88 0 01.127.464.78.78 0 01-.212.554c-.14.15-.357.245-.65.286.107.051.189.103.244.153.119.11.231.246.335.411l.53.84h-.506l-.405-.642a5.409 5.409 0 00-.292-.425.92.92 0 00-.206-.207.582.582 0 00-.184-.081 1.15 1.15 0 00-.225-.015h-.47v1.37h-.406zm.407-1.723h.869c.185 0 .33-.02.434-.058a.458.458 0 00.236-.185.507.507 0 00.081-.277.463.463 0 00-.156-.36c-.105-.094-.27-.141-.497-.141h-.968v1.021z" fill="#2B2A29"/><path d="M20.562 11.058l.63-.482c.1.117.214.186.34.206.127.02.27-.014.43-.101.177-.097.292-.202.347-.316a.253.253 0 00-.01-.234.205.205 0 00-.119-.103c-.052-.014-.145-.003-.277.034-.618.179-1.028.258-1.23.238a.76.76 0 01-.623-.419.83.83 0 01-.042-.715c.094-.25.326-.477.697-.68.353-.193.648-.278.882-.256.235.023.446.13.634.323l-.577.471a.458.458 0 00-.284-.148c-.107-.012-.232.021-.375.1-.18.099-.297.195-.348.289a.186.186 0 00-.003.182c.027.05.072.079.136.088.087.012.335-.04.745-.157.41-.116.72-.153.929-.111.21.043.373.176.491.394.129.239.14.498.035.778-.105.28-.352.525-.74.738-.352.192-.669.273-.952.243a1.112 1.112 0 01-.716-.362zm2.171-3.947l-.274-.67.717-.298.274.67-.717.298zm1.273 3.106L22.884 7.48l.718-.298 1.121 2.737-.717.298zm4.02-1.364l-.744.22-.423-1.447c-.089-.307-.163-.5-.221-.58a.433.433 0 00-.218-.163.465.465 0 00-.283.002.631.631 0 00-.319.21.561.561 0 00-.13.346c-.005.13.04.352.132.67l.375 1.284-.745.22-.828-2.84.69-.204.122.417c.154-.392.418-.643.794-.754.165-.049.325-.063.479-.044a.78.78 0 01.377.136.852.852 0 01.239.272c.062.11.125.273.189.492l.514 1.763zm2.96-2.658l-.734.26a.553.553 0 00-.228-.314.532.532 0 00-.369-.057.58.58 0 00-.425.275c-.092.152-.113.384-.063.696.057.347.154.583.293.707a.57.57 0 00.498.14.52.52 0 00.337-.185c.08-.099.121-.253.127-.464l.775.006c-.021.362-.129.65-.322.865-.193.214-.476.352-.849.414-.423.069-.783-.01-1.078-.239-.296-.229-.483-.581-.56-1.06-.078-.483-.012-.879.197-1.19.209-.31.53-.5.96-.571.353-.058.646-.027.879.092.233.119.42.327.561.625zm2.543.939l.784.072a1.285 1.285 0 01-.42.688c-.204.165-.467.26-.788.285-.509.039-.899-.1-1.168-.417-.213-.255-.335-.587-.366-.997-.037-.49.061-.883.293-1.18a1.25 1.25 0 01.93-.489c.436-.033.79.086 1.064.357.273.27.427.706.461 1.306l-1.937.148c.023.23.099.406.228.526a.58.58 0 00.459.16.47.47 0 00.297-.123.617.617 0 00.163-.336zm-.014-.794c-.023-.226-.093-.394-.212-.504a.528.528 0 00-.415-.146.537.537 0 00-.404.218c-.1.133-.142.307-.124.52l1.155-.088zm5.647 1.413l-.101.717-2.697-.386a1.89 1.89 0 01.372-.737c.18-.223.514-.506 1.001-.848.393-.276.636-.467.73-.572a.867.867 0 00.227-.452c.024-.173-.003-.313-.082-.42a.515.515 0 00-.361-.193.514.514 0 00-.404.092c-.108.084-.185.238-.232.463l-.757-.188c.106-.42.292-.707.56-.859.267-.15.58-.2.943-.15.396.058.692.21.888.458.196.248.271.533.226.854a1.436 1.436 0 01-.17.507 2.115 2.115 0 01-.382.474c-.11.107-.303.255-.578.446-.275.19-.45.316-.525.382a1.324 1.324 0 00-.189.193l1.531.219zm2.598-2.92c.383.086.65.292.805.618.184.385.192.957.022 1.714-.17.755-.42 1.27-.753 1.54-.276.225-.605.293-.988.206a1.161 1.161 0 01-.83-.66c-.17-.351-.168-.912.004-1.678.168-.752.42-1.264.752-1.535.276-.224.605-.293.988-.206zm-.142.634a.371.371 0 00-.262.034c-.084.042-.163.135-.236.28-.095.185-.196.513-.3.982-.106.47-.155.796-.148.982.007.186.039.316.096.39.056.074.13.121.22.142.09.02.178.01.262-.034.083-.043.162-.136.235-.28.096-.184.196-.511.301-.98.105-.469.154-.796.147-.982-.007-.186-.038-.317-.095-.39a.371.371 0 00-.22-.144zm3.688.483c.368.14.605.382.713.726.129.407.057.974-.215 1.7-.272.725-.592 1.199-.959 1.42-.304.184-.639.206-1.006.066a1.165 1.165 0 01-.732-.77c-.118-.372-.04-.927.236-1.661.27-.722.59-1.194.957-1.416.304-.183.64-.205 1.007-.065zm-.228.608a.372.372 0 00-.263-.002c-.09.03-.18.111-.272.244-.12.17-.266.481-.434.93-.17.45-.263.767-.282.952-.019.185-.005.319.04.4a.375.375 0 00.2.171.376.376 0 00.264.003c.088-.03.18-.111.271-.244.12-.169.265-.479.434-.929.168-.449.262-.766.281-.95.019-.186.006-.32-.04-.401a.373.373 0 00-.199-.174zm2.028.989l.337-.64 2.352 1.253-.264.505c-.296.088-.638.26-1.028.512a5.449 5.449 0 00-1.061.902 4.82 4.82 0 00-.725 1.004l-.661-.353c.274-.493.644-.95 1.11-1.367a5.732 5.732 0 011.505-.982l-1.565-.834zM7.04 61.153l.377.365.186-.196c.209-.218.388-.36.536-.422a.75.75 0 01.507-.016c.19.054.38.172.57.356.194.188.357.402.489.641l-.542.393a1.979 1.979 0 00-.283-.35c-.1-.097-.195-.143-.283-.139-.089.004-.197.073-.324.206l-.176.185.511.495-.515.54-.511-.495-1.96 2.055-.68-.658 1.96-2.055-.377-.365.515-.54zm.144 5.091l-.705-.63 2.372-2.69.654.584-.337.382c.272-.08.477-.108.617-.084a.76.76 0 01.38.19c.161.145.277.328.348.55l-.766.426a.837.837 0 00-.23-.414.527.527 0 00-.324-.144c-.117-.006-.258.045-.424.153-.166.108-.45.39-.853.848l-.732.83zm3.682 1.503l.657.699c-.304.205-.615.3-.932.288-.317-.014-.633-.14-.945-.377-.496-.376-.74-.818-.734-1.325.009-.405.161-.806.46-1.206.357-.476.76-.756 1.208-.838.449-.084.862.019 1.24.305.423.322.651.717.685 1.185.034.469-.173.99-.62 1.565L10 66.612c-.163.23-.234.45-.212.664a.72.72 0 00.292.517.57.57 0 00.37.128c.128-.003.267-.062.416-.174zm.62-.736c.159-.225.229-.435.207-.631a.65.65 0 00-.262-.47.65.65 0 00-.543-.127c-.197.04-.373.165-.527.374l1.124.854zm.402 1.627l.878.393a.692.692 0 00-.018.486c.052.147.173.281.36.401.205.133.384.195.536.186a.303.303 0 00.241-.147.253.253 0 00.04-.188c-.016-.064-.082-.157-.199-.278-.551-.557-.875-.95-.972-1.178a.935.935 0 01.077-.914.993.993 0 01.73-.464c.32-.047.696.07 1.128.348.411.265.674.531.788.795.113.266.124.555.03.87l-.836-.343a.565.565 0 00-.01-.392c-.05-.12-.158-.235-.325-.343-.211-.135-.38-.203-.51-.203a.223.223 0 00-.194.104.211.211 0 00-.014.197c.039.1.24.335.603.706.363.372.584.682.662.931.077.25.034.504-.128.758-.177.278-.444.443-.801.494-.357.05-.762-.069-1.214-.36-.41-.265-.681-.558-.815-.879a1.373 1.373 0 01-.037-.98zm6.063-.992l-.82 1.644c.438-.189.847-.187 1.227.005.196.1.355.225.475.376a.98.98 0 01.192.916c-.039.152-.13.372-.274.66l-.94 1.883-.842-.426.845-1.695c.168-.337.259-.559.272-.666a.473.473 0 00-.064-.303.62.62 0 00-.269-.236.786.786 0 00-.43-.09.65.65 0 00-.399.187c-.12.111-.248.302-.383.572l-.802 1.608-.843-.426 2.213-4.436.842.427zm6.88 7.194l-.744.555a3.364 3.364 0 01-.63-.764 1.987 1.987 0 01-.716.215 2.235 2.235 0 01-.805-.09c-.59-.162-.99-.454-1.197-.872a1.354 1.354 0 01-.102-.99c.084-.308.25-.56.5-.754.247-.195.577-.332.988-.413a2.674 2.674 0 01-.216-.656c-.035-.2-.03-.376.013-.534a.976.976 0 01.546-.642c.284-.138.64-.149 1.065-.031.409.113.7.308.875.582a1.05 1.05 0 01-.186 1.375c-.161.142-.444.276-.849.4l.412 1.067c.115-.117.231-.28.348-.488l.775.415a5.167 5.167 0 01-.39.587c-.098.12-.194.216-.289.288.076.124.179.265.31.424.13.16.227.268.292.326zm-1.768-3.293l.297-.123c.218-.092.346-.207.384-.347a.414.414 0 00-.048-.337.504.504 0 00-.318-.221.511.511 0 00-.368.015.347.347 0 00-.191.22c-.031.114 0 .27.093.47l.151.323zm-.628.9c-.237.05-.429.135-.573.257a.836.836 0 00-.28.417.674.674 0 00.06.54c.092.16.247.27.462.33.142.04.287.05.433.028a1.8 1.8 0 00.506-.163l-.608-1.41zm4.478 2.515l.96-.032a.69.69 0 00.194.445c.111.11.278.177.497.203.243.03.43.006.564-.068a.306.306 0 00.153-.24.252.252 0 00-.046-.185c-.042-.05-.141-.105-.299-.163-.737-.259-1.199-.47-1.385-.633a.933.933 0 01-.327-.856c.037-.31.19-.557.457-.739.267-.182.656-.243 1.165-.182.485.058.837.182 1.054.37.217.188.352.444.404.768l-.901.06a.562.562 0 00-.179-.349c-.097-.087-.244-.142-.441-.165-.249-.03-.43-.017-.547.04a.227.227 0 00-.13.18.21.21 0 00.074.183c.078.073.36.196.848.37.487.175.82.357 1 .547.177.191.247.438.211.739-.038.327-.207.593-.507.796-.299.203-.715.273-1.248.209-.483-.058-.854-.202-1.113-.432a1.367 1.367 0 01-.458-.866zm4.069-2.065l.866.03-.016.49c.323-.367.7-.544 1.13-.53.228.009.425.063.589.163.165.1.298.249.398.444a1.66 1.66 0 01.522-.412c.185-.089.38-.13.586-.123.262.01.481.07.66.184a.983.983 0 01.39.486c.06.154.084.404.072.747l-.077 2.296-.942-.032.069-2.053c.012-.356-.013-.587-.075-.692-.082-.138-.215-.211-.396-.218a.646.646 0 00-.378.11.685.685 0 00-.264.347c-.057.156-.09.402-.102.74l-.058 1.724-.942-.032.066-1.968c.012-.348.002-.575-.028-.677a.429.429 0 00-.148-.233.49.49 0 00-.284-.083.649.649 0 00-.658.438c-.055.147-.089.393-.1.737l-.059 1.745-.942-.032.12-3.596zm5.704 1.792c-.024-.315.03-.627.162-.933a1.6 1.6 0 01.604-.727c.27-.177.58-.28.928-.307.539-.04.993.102 1.363.428.371.327.577.759.617 1.298.042.544-.098 1.007-.418 1.391-.32.384-.744.596-1.27.637a2.057 2.057 0 01-.951-.152 1.526 1.526 0 01-.725-.603c-.176-.275-.279-.62-.31-1.032zm.971-.023c.027.356.132.622.313.799a.796.796 0 00.641.236.79.79 0 00.595-.331c.152-.202.214-.484.187-.845-.026-.351-.13-.615-.31-.791a.787.787 0 00-.639-.238.797.797 0 00-.598.333c-.153.201-.215.48-.189.837zm3.01-.386a1.958 1.958 0 01.06-.946c.098-.32.272-.583.522-.789.25-.206.546-.341.89-.406.53-.1.997-.009 1.401.275.404.284.655.69.754 1.222.1.536.011 1.012-.265 1.429-.277.417-.675.674-1.195.773a2.07 2.07 0 01-.96-.047 1.522 1.522 0 01-.786-.52c-.205-.253-.345-.584-.42-.99zm.964-.13c.065.35.198.604.397.76.2.156.42.21.663.165a.791.791 0 00.556-.396c.128-.217.16-.504.094-.86-.065-.346-.197-.597-.395-.752a.786.786 0 00-.66-.166.8.8 0 00-.559.396c-.13.217-.161.502-.096.853zm4.309-2.915l.2.728-.623.175.388 1.404c.08.285.13.45.156.493a.211.211 0 00.114.094.26.26 0 00.166.002c.085-.024.199-.087.343-.19l.273.69a1.87 1.87 0 01-.68.338c-.163.046-.318.06-.465.04a.665.665 0 01-.348-.134.892.892 0 01-.227-.324 4.822 4.822 0 01-.209-.64l-.419-1.518-.418.117-.2-.728.417-.117-.19-.688.759-.796.34 1.23.623-.175zm.69-1.705l.654 1.717c.156-.453.433-.757.83-.91.205-.08.403-.113.596-.1a.965.965 0 01.481.148c.129.085.235.193.32.325.086.132.185.348.3.65l.75 1.967-.88.34-.675-1.771c-.134-.352-.236-.569-.306-.65a.465.465 0 00-.266-.156.616.616 0 00-.354.04.794.794 0 00-.355.261.66.66 0 00-.132.422c0 .165.055.389.162.67l.64 1.681-.88.34-1.766-4.634.88-.34zm3.13-.319l-.36-.802.86-.392.36.803-.86.391zm1.672 3.72l-1.473-3.278.86-.391 1.472 3.278-.86.391zm2.98-2.78l.894-.342c.07.362.038.688-.095.978-.135.29-.371.535-.709.734-.535.316-1.035.373-1.496.171-.368-.163-.677-.46-.928-.891-.3-.515-.4-.998-.303-1.446.096-.45.349-.794.757-1.034.457-.27.907-.33 1.35-.182.441.15.84.542 1.194 1.18l-2.037 1.2c.147.24.323.392.527.453.204.062.4.038.586-.072a.577.577 0 00.26-.294c.046-.121.046-.272 0-.454zm-.436-.859c-.144-.235-.31-.38-.498-.436a.64.64 0 00-.53.063.659.659 0 00-.326.456c-.04.199.007.41.14.634l1.214-.717zm4.116-.062l-3.052-3.9.74-.588 1.1 1.407c.024-.444.192-.79.505-1.04.342-.27.72-.37 1.14-.298.418.072.81.342 1.176.81.378.482.556.944.532 1.387-.024.441-.199.792-.524 1.05-.16.128-.35.211-.571.252a1.48 1.48 0 01-.686-.041l.325.415-.686.545zm-.42-2.047c.23.293.447.474.648.541.285.097.533.062.747-.108a.678.678 0 00.253-.545c.005-.233-.112-.502-.35-.806-.254-.324-.495-.511-.723-.562a.698.698 0 00-.615.14.718.718 0 00-.28.562c-.009.233.098.493.32.778zm2.574-2.858l-.72.486c-.172-.32-.231-.624-.178-.91.054-.286.248-.59.582-.914.303-.294.564-.478.782-.55.217-.07.41-.08.577-.027.167.053.392.228.677.526l.753.81c.217.226.388.384.513.472.125.087.276.164.453.23l-.675.653a3.522 3.522 0 01-.256-.137 1.165 1.165 0 00-.1-.057 1.708 1.708 0 01-.126.619 1.46 1.46 0 01-.34.496c-.264.255-.541.385-.832.387a.99.99 0 01-.752-.328 1.036 1.036 0 01-.27-.492.956.956 0 01.041-.546c.067-.182.197-.41.389-.684.26-.367.427-.638.5-.808l-.066-.07c-.127-.132-.25-.196-.37-.191-.119.006-.268.097-.448.27-.121.118-.193.234-.213.348-.023.115.004.254.079.417zm1.442-.33a5.976 5.976 0 01-.314.507c-.15.224-.235.383-.257.478-.027.15.005.273.098.37a.46.46 0 00.344.146.514.514 0 00.372-.158.832.832 0 00.235-.461.603.603 0 00-.055-.385c-.038-.075-.136-.195-.292-.36l-.13-.136zm3.13-.73l-.653.684-2.576-2.492.606-.635.365.353c-.069-.276-.088-.484-.058-.623a.767.767 0 01.203-.376c.15-.156.336-.266.56-.328l.391.787a.828.828 0 00-.42.215.535.535 0 00-.154.32c-.01.119.033.262.134.433.101.172.37.47.808.893l.794.768z" fill="#2B2A29"/></svg>