<svg width="33" height="54" fill="none" xmlns="http://www.w3.org/2000/svg"><path fill-rule="evenodd" clip-rule="evenodd" d="M19.704 6.254L21.407.58a.812.812 0 01.778-.58h9.746a.812.812 0 110 1.624H22.79l-1.653 5.51a12.168 12.168 0 015.082 9.108h.84c.448 0 .811.364.811.813v8.12a.812.812 0 01-.812.813h-.923l-3.958 26.918a.812.812 0 01-.803.694H6.755a.812.812 0 01-.803-.694L1.993 25.988H1.07a.812.812 0 01-.812-.812v-8.121c0-.449.364-.813.812-.813h.839c.418-6.349 5.7-11.37 12.156-11.37 2.035 0 3.954.5 5.64 1.382zM7.457 51.976h13.215l3.822-25.988H3.634l3.823 25.988zM1.883 17.867v6.497h24.363v-6.497H1.883zm18.756-9.073l-2.235 7.449h6.187a10.54 10.54 0 00-3.952-7.45zm-1.41-.95a10.51 10.51 0 00-5.164-1.346c-5.558 0-10.113 4.294-10.527 9.745h13.171l2.52-8.399zm-5.164 34.387a4.873 4.873 0 110-9.746 4.873 4.873 0 010 9.746zm0-1.625a3.248 3.248 0 100-6.496 3.248 3.248 0 000 6.496z" fill="#fff"/></svg>