<svg width="38" height="45" fill="none" xmlns="http://www.w3.org/2000/svg"><path d="M24.7 20.168h10.925v-6.653H24.7v6.653zm10.925 2.217v21.067a1.1 1.1 0 01-1.092 1.108H3.94a1.1 1.1 0 01-1.093-1.108V22.385H1.756a1.1 1.1 0 01-1.093-1.109v-8.87a1.1 1.1 0 011.093-1.109h9.68L6.129 9.758c-1.941-.561-3.28-2.362-3.28-4.41 0-4.73 5.776-6.931 8.846-3.374l7.543 8.749 7.543-8.75c3.07-3.556 8.845-1.354 8.845 3.375 0 2.048-1.338 3.849-3.279 4.41l-5.309 1.54h9.68a1.1 1.1 0 011.093 1.108v8.87c0 .613-.49 1.11-1.093 1.11h-1.092zM2.85 20.168h10.925v-6.653H2.85v6.653zm13.11-6.653v6.653h6.556v-6.653h-6.557zm6.556 8.87H15.96v19.958h6.556V22.385zm2.185 0v19.958h8.74V22.385H24.7zm-10.926 0h-8.74v19.958h8.74V22.385zm-3.723-18.95C8.31 1.417 5.035 2.667 5.035 5.348c0 1.058.69 1.988 1.694 2.278l9.248 2.682-5.926-6.872zm21.696 4.19a2.363 2.363 0 001.693-2.277c0-2.681-3.275-3.93-5.016-1.913l-5.926 6.873 9.249-2.682z" fill="#fff"/></svg>