<svg width="150" height="166" fill="none" xmlns="http://www.w3.org/2000/svg"><path fill-rule="evenodd" clip-rule="evenodd" d="M75 2.098c40.263 0 72.903 32.64 72.903 72.902 0 40.263-32.64 72.903-72.903 72.903-40.263 0-72.903-32.64-72.903-72.903C2.097 34.737 34.737 2.098 75 2.098z" fill="#FEFEFE"/><path fill-rule="evenodd" clip-rule="evenodd" d="M75 0c41.414 0 75 33.586 75 75 0 41.415-33.586 75-75 75S0 116.415 0 75C0 33.586 33.586 0 75 0zm0 3.02c39.746 0 71.979 32.235 71.979 71.98 0 39.746-32.233 71.979-71.979 71.979-39.745 0-71.979-32.233-71.979-71.98 0-39.744 32.233-71.978 71.98-71.978z" fill="#2B2A29"/><path fill-rule="evenodd" clip-rule="evenodd" d="M96.608 109.8c-2.55 1.093-5.112.421-7.383-.84-3.04-1.688-4.413-4.908-4.601-8.191a7.476 7.476 0 002.347.395c1.567-.008 3.027-.565 4.04-1.882l.2-.26.125-.316c.408-1.027.367-2 .026-2.863l-.003.001c-.35-.88-.999-1.587-1.77-2.068a2.86 2.86 0 01-.397-.348c-.252-.268-.36-.542-.353-.804.01-.39.2-.841.521-1.308.215-.312.488-.623.809-.924a7.644 7.644 0 011.694-1.19c4.4-1.658 9.796-1.307 14.164 2.346 2.351 1.967 3.057 4.593 2.894 7.6-.497 4.74-5.776 7.61-10.234 5.846-1.067-.423-3.18-1.768-4.28-1.152-.583.326-.838 1.287-.411 1.883.656.915 1.593 1.065 2.493 1.642 1.39.888 1.478 1.851.119 2.433zm.158-11.744c-1.11.323-2.17 1.999-.788 2.233 2.882.486 2.17.927 3.358 1.119 1.753.282 2.177-1.46 1.045-2.627-.71-.732-2.288-1.11-3.615-.725zM58.978 58.477c-.266 5.505.109 10.438 2.998 14.27 1.702 2.257 6.654.455 6.917-3.128.546-4.74.352-7.59 1.451-12.088 1.217-4.982-1.593-6.35-4.289-7.21-2.751-.879-6.758 1.551-7.077 8.156zm6.279-23.61a5.64 5.64 0 11-.224 11.277 5.64 5.64 0 01.224-11.278zM44.033 45.673c.784-4.55 1.484-6.83 6.255-7.47 4.712-.007 6.032 3.056 6.625 7.186.428 5.286.21 10.695-.87 15.858-1.1 4.977-2.708 9.86-5.369 14.292-2.042 3.143-4.607 5.327-8.477 5.766-4.437.277-8.992-1.6-12.765-3.752l-.361-.213-.356-.216-.348-.218-.34-.22-.334-.223-.325-.224-.31-.223-.884-.672c-3.156-2.665-5.356-5.717-6.208-9.757-.556-3.73.681-6.853 3.25-9.808 2.968-3.417 9.803-5.691 12.64-1.815 1.678 2.401 2.81 11.376 6.254 11.283 2.851-.653 2.358-6.472 2.316-8.547-.111-3.686-.899-7.327-.393-11.027z" fill="#2B2A29"/><path fill-rule="evenodd" clip-rule="evenodd" d="M76.966 41.758c.824-1.994.438-3.92 1.99-5.633 1.826-2.015 4.532-3.05 7.45-2.23 2.896 1.159 3.379 2.864 1.97 5.586-.688 1.33-1.263 2.787-1.784 4.415-.603 1.886-.1 3.034 2.226 3.68 5.125 1.613 3.127 7.524-2.07 7.3-2.165-.093-2.813 1.375-3.074 3.06-.46 2.967-.453 6.23-.287 8.393.313 4.062-.16 5.842-3.19 6.357-5.954 1.014-8.449-3.813-8.51-8.22-.039-2.75.815-6.312 1.847-9.623.653-2.098-1.266-3.434-2.614-4.278-2.056-1.287-1.458-5.758 2.58-5.91 1.713-.063 2.465-.481 3.466-2.897z" fill="#2B2A29"/><path fill-rule="evenodd" clip-rule="evenodd" d="M98.454 65.734l.337.134.304.138.3.153.297.163.287.168.279.17.267.166.255.16.24.147.226.134.213.115.206.092.211.066.253.02.326-.118.253-.345.064-.37-.026-.3-.066-.275-.095-.28-.125-.291-.151-.302-.177-.31-.201-.314-.223-.312-.245-.306-.265-.292-.284-.275-.303-.25-.319-.218-.339-.18-.37-.14-.643-.079-.607.133-.522.325-.392.509-.168.661.153.661.428.51.622.332zM93.41 47.592l.051-.16.078-.205.087-.204.1-.203.108-.202.119-.199.13-.197.14-.196.15-.194.16-.192.17-.188.18-.187.19-.183.2-.18.207-.177.212-.17.651-.464.708-.428.763-.393.817-.355.862-.314.905-.27.941-.225.972-.175.999-.125 1.02-.072 1.037-.017 1.049.041 1.055.1 1.057.163 1.053.226 1.046.291 1.033.36 1.015.429.993.5.967.575.934.65.899.727.858.808.814.889.763.973.71 1.06.651 1.149.589 1.24.522 1.334.449 1.43.372 1.532.292 1.638.07.516.061.523.052.526.042.526.031.529.023.53.013.53.004.532-.007.533-.015.534-.025.534-.033.534-.043.535-.051.535-.06.535-.068.533-.077.534-.086.534-.094.533-.102.531-.11.531-.119.53-.126.528-.134.526-.142.525-.15.523-.157.521-.164.518-.172.517-.179.514-.186.51-.192.507-.203.505-.206.482-.211.46-.214.44-.219.416-.222.398-.227.375-.23.356-.235.335-.237.315-.242.295-.244.276-.248.257-.25.237-.255.22-.258.2-.262.183-.265.166-.269.148-.273.132-.278.115-.281.098-.286.082-.291.065-.296.05-.3.034-.306.017-.31.001-.316-.014-.32-.031-.326-.046-.33-.064-.356-.082-.347-.097-.341-.11-.335-.123-.329-.134-.324-.145-.318-.156-.315-.166-.311-.175-.308-.183-.304-.19-.301-.2-.3-.204-.298-.21-.296-.215-.296-.22-.296-.222-.295-.226c-3.101-2.377-7.421-3.582-11.184-4.42-3.265-.71-7.454-1.135-9.108-6.166-1.122-5.404 1.157-8.439 3.16-10.319 1.535-1.441 4.128-2.645 6.839-2.084 2.944.608 4.245 3.331 6.593 4.883 1.527.72 2.553-.223 3.638-1.643l.18-.422.126-.376.089-.38.055-.381.019-.38-.015-.375-.049-.369-.081-.362-.114-.351-.143-.341-.172-.329-.2-.317-.227-.304-.253-.29-.278-.278-.303-.263-.327-.248-.351-.233-.374-.218-.396-.201-.419-.184-.441-.166-.463-.147-.483-.13-.505-.108-.524-.087-.545-.066-.564-.045-.583-.02-.602.003-.62.028-.623.053-.437.02-.404-.027-.385-.07-.362-.113-.34-.15-.314-.185-.287-.215-.255-.244-.225-.268-.19-.29-.154-.305-.118-.32-.08-.333-.04-.34-.001-.348.038-.328zm-29.479 53.619l.25.299.19.242.185.245.178.248.172.25.165.251.159.255.151.256.145.258.138.26.132.263.124.265.117.266.11.268.103.271.096.273.089.273.122.42.11.422.096.423.083.424.07.425.056.424.044.426.03.425.017.424.004.423-.009.422-.022.42-.035.418-.048.415-.062.413-.074.409-.088.406-.101.402-.114.398-.127.393-.14.389-.153.383-.167.377-.178.372-.193.366-.206.358-.218.352-.231.345-.245.337-.258.329-.27.322-.284.312-.262.268-.272.261-.284.254-.293.246-.302.24-.313.231-.32.223-.33.215-.336.207-.344.198-.351.189-.357.18-.363.17-.369.162-.373.151-.377.141-.382.132-.384.121-.388.111-.39.1-.393.089-.393.077-.394.067-.394.056-.395.043-.394.032-.393.02-.39.008-.39-.005-.387-.017-.384-.029-.38-.043-.356-.051-.355-.062-.352-.073-.35-.084-.346-.095-.344-.105-.34-.116-.338-.127-.333-.138-.328-.148-.325-.158-.319-.17-.314-.18-.31-.191-.303-.201-.297-.212-.293-.222-.284-.233-.279-.244-.271-.254-.265-.265-.256-.275-.25-.285-.24-.297-.233-.307-.224-.317-.216-.328-.205-.339-.197-.349-.188-.36-.177-.37-.164-.376-.26-.705-.185-.687-.117-.674-.053-.659.009-.644.066-.627.12-.609.172-.589.22-.569.265-.545.306-.52.346-.494.381-.466.413-.434.441-.402.467-.368.488-.331.507-.292.52-.253.532-.21.539-.166.542-.121.542-.074.539-.026.53.025.522.075.51.128.493.181.475.238.456.295.433.356.635.651c1.414-.682 2.12-1.534 2.13-3.126.011-1.621-.667-3.007-1.608-4.3-1.228-1.686-4.747-4.287-6.516-5.372-1.333 2.576-5.348 4.152-7.716 1.344-2.125-2.52-.533-6.178 2.712-7.066 2.093-.573 3.335-.72 5.705-2.35 1.158-.796 2.587-2.429 3.138-2.25-.356 1.084-.489 2.402-.308 4.03a18.888 18.888 0 001.251 4.898c.938 2.329 2.358 4.527 4.198 6.098 1.875 1.602 4.152 2.563 6.776 2.427zM88.845 79.8c4.253-1.016 7.206-.454 9.07 1.38 1.817 1.786 1.577 4.38-2.82 4.703-2.891.212-5.123 1.44-6.553 2.78-2.312 2.17-3.099 5.139-.215 7.125.693.43 1.152 1.173.806 2.044-1.113 1.448-3.48 1.099-5.169.024-7.28-4.632-3.614-16.025 4.88-18.055zm-10.397 20.448c.783 2.74-.609 4.393-2.786 4.589-2.927.262-3.88-1.623-4.215-4.219-.503-3.917.58-6.329 1.764-10.377.925-3.166 5.207-3.218 4.592.271-.575 3.262-.432 5.971.645 9.736z" fill="#2B2A29"/><path fill-rule="evenodd" clip-rule="evenodd" d="M60.829 84.22c-.156 2.495 1.367 3.999 2.126 4.295 3.299 1.288 4.5-1.55 3.135-7.865-.352-1.632.675-2.421 2.302-2.63 1.703-.072 2.127.16 2.49 1.997.451 2.289.39 6.065.12 8.168-.75 5.871-2.028 9.032-4.555 10.05-7.04 2.833-11.717-4.736-12.38-10.707-.374-3.363.863-4.726 2.463-5.439 2.252-1.005 4.523-1.46 4.299 2.131zm16.058-6.642a3.988 3.988 0 11.279 7.97 3.988 3.988 0 01-.28-7.97zm46.864-44.38a6.12 6.12 0 110 12.24 6.12 6.12 0 010-12.24zm-2.506 9.46v-6.671h2.956c.595 0 1.047.06 1.356.18.309.12.556.33.741.633.185.303.276.639.276 1.005 0 .474-.154.873-.459 1.197-.306.325-.778.53-1.418.619.234.111.412.223.532.332.259.235.504.532.73.888l1.154 1.817h-1.102l-.882-1.388a11.741 11.741 0 00-.636-.921 2.015 2.015 0 00-.449-.446 1.266 1.266 0 00-.402-.177 2.52 2.52 0 00-.49-.03h-1.022v2.962h-.885zm.885-3.727h1.894c.404 0 .718-.043.945-.126a.993.993 0 00.515-.4c.117-.184.177-.382.177-.598a.998.998 0 00-.341-.78c-.229-.203-.589-.304-1.081-.304h-2.109v2.208z" fill="#2B2A29"/><path d="M44.69 23.4l1.373-1.04c.22.253.466.402.742.444.275.045.588-.03.937-.219.385-.209.636-.436.754-.683a.544.544 0 00-.022-.506.445.445 0 00-.258-.222c-.113-.03-.315-.007-.604.073-1.346.387-2.239.558-2.68.515-.611-.063-1.064-.365-1.357-.906-.266-.49-.296-1.005-.091-1.546.204-.542.71-1.032 1.518-1.47.77-.42 1.411-.604 1.922-.556.511.05.972.282 1.38.699l-1.256 1.02a1 1 0 00-.62-.322c-.232-.026-.503.047-.816.217-.394.214-.646.421-.758.625a.4.4 0 00-.006.394c.058.106.156.17.295.19.19.026.73-.087 1.623-.338.894-.252 1.568-.333 2.025-.241.456.094.813.38 1.07.853.28.515.306 1.076.076 1.681-.23.605-.766 1.137-1.612 1.597-.766.416-1.458.59-2.074.525a2.428 2.428 0 01-1.56-.783zm4.73-8.535l-.597-1.448 1.562-.645.598 1.448-1.562.645zm2.774 6.718l-2.444-5.92 1.563-.645 2.444 5.92-1.563.645zm8.759-2.95l-1.622.477-.92-3.132c-.195-.663-.356-1.08-.482-1.253a.945.945 0 00-.475-.354 1.02 1.02 0 00-.616.005 1.376 1.376 0 00-.695.456c-.182.22-.276.47-.284.747-.01.28.086.762.288 1.448l.816 2.778-1.622.477-1.805-6.144 1.504-.442.265.902c.336-.847.912-1.39 1.73-1.63.36-.105.708-.137 1.044-.096.338.042.611.14.822.294.213.156.386.352.52.589.136.236.272.59.411 1.064l1.12 3.814zm6.447-5.749l-1.596.56c-.108-.318-.274-.543-.498-.677-.224-.133-.491-.175-.804-.124-.416.068-.725.266-.926.595-.2.329-.246.83-.136 1.506.122.75.334 1.26.637 1.53.302.27.664.368 1.086.3.317-.052.562-.185.733-.399.174-.214.265-.547.276-1.003l1.69.012c-.047.783-.281 1.407-.701 1.87-.42.465-1.037.763-1.85.896-.922.15-1.707-.022-2.35-.515-.645-.495-1.05-1.259-1.219-2.292-.17-1.045-.026-1.902.429-2.574.455-.672 1.153-1.084 2.093-1.237.767-.125 1.405-.058 1.914.199.506.257.913.707 1.222 1.353zm5.544 2.03l1.707.156c-.169.633-.476 1.129-.917 1.488-.443.358-1.015.564-1.714.617-1.11.084-1.96-.217-2.545-.903-.465-.55-.732-1.268-.8-2.156-.08-1.058.135-1.91.64-2.55.507-.643 1.184-.995 2.028-1.06.948-.071 1.72.186 2.317.772.595.586.93 1.528 1.004 2.825l-4.22.32c.05.5.215.879.497 1.138.279.26.614.374 1 .345.264-.02.48-.108.647-.266.17-.157.288-.399.356-.726zm-.032-1.717c-.049-.49-.202-.853-.461-1.09a1.155 1.155 0 00-.905-.316 1.17 1.17 0 00-.88.473c-.22.286-.309.662-.27 1.123l2.516-.19zm12.304 3.055l-.22 1.552-5.877-.835a4.092 4.092 0 01.81-1.594c.393-.482 1.122-1.094 2.182-1.834.856-.597 1.386-1.01 1.593-1.236.279-.314.443-.64.492-.98.053-.374-.006-.675-.18-.905-.17-.23-.433-.37-.785-.42-.35-.05-.642.017-.88.2-.236.18-.403.513-.505 1l-1.65-.405c.23-.91.636-1.53 1.219-1.858.582-.327 1.266-.435 2.054-.323.864.122 1.509.453 1.937.989.427.536.59 1.152.492 1.846a3.09 3.09 0 01-.372 1.098 4.578 4.578 0 01-.83 1.024c-.24.232-.66.552-1.26.964-.6.411-.982.685-1.145.826a2.88 2.88 0 00-.41.417l3.335.474zm5.66-6.317c.834.189 1.418.635 1.755 1.339.4.832.417 2.07.047 3.706-.368 1.635-.916 2.747-1.641 3.334-.6.484-1.317.633-2.152.445-.838-.19-1.442-.665-1.81-1.427-.367-.762-.364-1.973.01-3.63.367-1.627.914-2.735 1.639-3.322.6-.484 1.317-.633 2.151-.445zm-.31 1.373a.813.813 0 00-.57.074c-.182.091-.354.293-.513.605-.209.402-.428 1.111-.656 2.124-.23 1.016-.336 1.723-.321 2.125.014.402.084.683.208.844.124.16.284.262.48.306.197.045.388.02.572-.073.18-.092.353-.294.512-.606.207-.398.426-1.105.655-2.12.229-1.014.336-1.721.32-2.123-.014-.402-.083-.685-.207-.846a.809.809 0 00-.48-.31zm8.037 1.046c.8.302 1.317.825 1.553 1.57.281.88.124 2.107-.469 3.676-.593 1.568-1.29 2.593-2.09 3.073-.661.396-1.391.444-2.192.141-.804-.304-1.335-.858-1.594-1.664-.258-.806-.086-2.005.515-3.594.59-1.56 1.285-2.58 2.085-3.061.662-.397 1.392-.444 2.192-.141zm-.497 1.316a.815.815 0 00-.574-.006c-.194.065-.392.24-.593.527-.263.37-.578 1.042-.945 2.013-.368.974-.573 1.66-.614 2.06-.041.4-.011.687.089.864.1.176.245.3.434.37a.824.824 0 00.575.007c.192-.066.39-.241.591-.529.262-.365.577-1.035.945-2.008.367-.972.571-1.658.612-2.057.041-.4.012-.69-.088-.867a.81.81 0 00-.432-.375zm4.418 2.137l.733-1.385 5.127 2.712-.578 1.09c-.643.193-1.388.562-2.237 1.109a11.856 11.856 0 00-2.313 1.952c-.692.755-1.22 1.479-1.58 2.17l-1.44-.762c.598-1.068 1.403-2.054 2.418-2.957a12.5 12.5 0 013.281-2.125l-3.411-1.804zM15.228 131.752l.822.79.406-.424c.454-.472.844-.777 1.168-.912.326-.138.694-.149 1.104-.035.412.116.826.371 1.24.769.424.407.78.87 1.066 1.387l-1.18.849a4.283 4.283 0 00-.616-.754c-.22-.212-.425-.312-.617-.303-.193.01-.428.158-.706.446l-.384.4 1.114 1.07-1.122 1.168-1.114-1.07-4.27 4.445-1.481-1.424 4.27-4.444-.822-.79 1.122-1.168zm.315 11.013l-1.536-1.365 5.168-5.819 1.424 1.265-.733.826c.591-.173 1.04-.233 1.343-.181.304.053.58.191.828.412.352.311.604.709.758 1.19l-1.668.919c-.11-.399-.277-.697-.5-.895a1.154 1.154 0 00-.706-.31c-.256-.013-.563.095-.924.329-.362.234-.982.846-1.86 1.835l-1.594 1.794zm8.02 3.249l1.434 1.512c-.663.443-1.34.649-2.032.623-.69-.03-1.378-.301-2.059-.814-1.08-.814-1.613-1.77-1.598-2.866.018-.876.351-1.745 1.003-2.609.776-1.03 1.655-1.635 2.63-1.813.978-.18 1.879.041 2.7.661.923.695 1.42 1.549 1.496 2.563.072 1.013-.378 2.141-1.352 3.385l-4.108-3.096c-.355.496-.51.974-.46 1.436.047.462.26.835.635 1.118.257.194.526.286.805.278.28-.008.582-.134.907-.378zm1.351-1.592c.348-.486.5-.941.453-1.364a1.405 1.405 0 00-.571-1.016 1.427 1.427 0 00-1.183-.275c-.43.086-.813.357-1.148.809l2.45 1.846zm.877 3.52l1.913.85c-.141.382-.155.733-.038 1.051.113.318.376.608.782.868.449.287.838.421 1.17.402a.66.66 0 00.525-.319.543.543 0 00.085-.406c-.034-.137-.177-.339-.432-.6-1.201-1.206-1.907-2.055-2.118-2.55-.293-.688-.236-1.347.167-1.976.365-.57.896-.904 1.592-1.004.697-.1 1.515.151 2.456.753.897.574 1.47 1.149 1.718 1.721.247.573.27 1.199.067 1.879l-1.823-.74a1.211 1.211 0 00-.022-.847c-.108-.263-.345-.509-.709-.742-.459-.294-.827-.441-1.11-.441a.488.488 0 00-.423.225.454.454 0 00-.03.426c.085.217.522.726 1.313 1.529.791.803 1.273 1.474 1.444 2.013.168.541.072 1.089-.28 1.64-.385.6-.967.957-1.746 1.067-.777.11-1.66-.149-2.644-.779-.893-.572-1.484-1.206-1.776-1.9a2.949 2.949 0 01-.081-2.12zm13.211-2.146l-1.786 3.556c.952-.409 1.845-.405 2.673.012.427.214.772.485 1.035.813.262.33.419.658.47.991.051.332.034.661-.053.989-.084.33-.284.806-.597 1.429l-2.047 4.073-1.836-.923 1.843-3.666c.366-.728.562-1.208.592-1.44a1.016 1.016 0 00-.14-.655c-.121-.206-.315-.376-.586-.512a1.729 1.729 0 00-.938-.192c-.317.025-.606.16-.868.403-.263.24-.541.654-.834 1.237l-1.749 3.479-1.835-.923 4.82-9.593 1.837.922zm14.99 15.56l-1.623 1.2a7.297 7.297 0 01-1.371-1.651 4.395 4.395 0 01-1.561.465c-.519.05-1.102-.015-1.753-.194-1.287-.353-2.156-.983-2.608-1.887a2.909 2.909 0 01-.223-2.142 3.02 3.02 0 011.088-1.63c.54-.421 1.26-.719 2.155-.893-.239-.517-.396-.99-.47-1.42-.076-.43-.067-.814.026-1.154.172-.626.57-1.09 1.19-1.389.619-.299 1.395-.322 2.32-.068.892.245 1.528.666 1.907 1.26.378.596.476 1.222.294 1.882a2.209 2.209 0 01-.698 1.091c-.352.308-.968.597-1.85.866l.898 2.307c.25-.253.503-.606.758-1.054l1.688.896c-.353.587-.638 1.012-.851 1.269a3.749 3.749 0 01-.628.624c.165.268.39.573.673.918.284.345.497.58.639.704zm-3.853-7.122l.646-.266c.477-.198.756-.448.839-.749a.889.889 0 00-.106-.729c-.139-.233-.37-.392-.692-.481-.314-.086-.581-.074-.803.034-.22.111-.359.269-.416.476-.067.246 0 .584.204 1.015l.328.7zm-1.368 1.946c-.517.107-.934.293-1.25.556-.313.264-.518.566-.61.903-.118.429-.075.819.13 1.166.203.349.54.586 1.01.715.308.085.623.107.941.062.321-.044.688-.162 1.103-.353l-1.324-3.049zm9.755 5.441l2.092-.069c.04.404.181.726.425.961.241.237.604.384 1.083.441.528.062.937.013 1.228-.149a.663.663 0 00.333-.517.542.542 0 00-.1-.402c-.091-.109-.309-.228-.651-.351-1.607-.561-2.613-1.018-3.019-1.37-.563-.492-.8-1.109-.712-1.851.08-.673.413-1.205.995-1.599.583-.394 1.43-.525 2.539-.393 1.057.125 1.823.392 2.296.798.472.408.767.961.88 1.662l-1.963.13a1.212 1.212 0 00-.39-.754c-.21-.188-.532-.307-.961-.358-.54-.064-.937-.035-1.19.088a.486.486 0 00-.283.387c-.018.146.035.278.16.396.169.159.784.425 1.847.803 1.062.378 1.789.771 2.178 1.182.386.413.54.948.462 1.598-.084.707-.452 1.283-1.105 1.721-.651.439-1.557.59-2.719.453-1.052-.125-1.861-.437-2.426-.935a2.949 2.949 0 01-.999-1.872zm8.866-4.468l1.888.064-.036 1.062c.705-.794 1.526-1.176 2.462-1.145.497.017.926.134 1.284.351.36.218.65.538.868.96.356-.403.736-.7 1.138-.892a2.72 2.72 0 011.276-.264c.57.019 1.048.15 1.437.396.387.246.67.595.85 1.052.131.334.183.873.158 1.615l-.168 4.966-2.053-.069.15-4.439c.026-.772-.027-1.271-.162-1.498-.18-.299-.47-.457-.864-.47a1.416 1.416 0 00-.824.235c-.258.169-.451.42-.575.753-.124.336-.197.869-.222 1.601l-.126 3.729-2.053-.07.144-4.256c.025-.754.004-1.245-.06-1.465-.066-.222-.173-.391-.324-.503-.149-.113-.357-.173-.619-.182a1.503 1.503 0 00-.863.226c-.26.164-.448.403-.57.721-.12.319-.193.851-.218 1.596l-.128 3.774-2.053-.069.263-7.779zm12.429 3.877a4.206 4.206 0 01.352-2.019 3.472 3.472 0 011.317-1.572 4.237 4.237 0 012.022-.663c1.174-.089 2.162.219 2.97.924.809.708 1.256 1.642 1.345 2.808.09 1.176-.215 2.179-.911 3.01-.699.83-1.622 1.289-2.77 1.376-.71.054-1.4-.056-2.07-.328a3.32 3.32 0 01-1.579-1.304c-.384-.595-.608-1.339-.676-2.232zm2.116-.051c.059.771.286 1.347.68 1.728.399.383.863.554 1.398.513a1.723 1.723 0 001.297-.718c.33-.436.466-1.046.407-1.826-.058-.76-.284-1.332-.677-1.713a1.72 1.72 0 00-1.39-.513 1.74 1.74 0 00-1.304.719c-.332.436-.47 1.04-.41 1.81zm6.559-.834a4.208 4.208 0 01.13-2.046 3.471 3.471 0 011.137-1.706 4.233 4.233 0 011.938-.879c1.157-.217 2.173-.019 3.053.594.881.615 1.427 1.494 1.643 2.644.218 1.159.024 2.19-.577 3.091-.604.902-1.47 1.458-2.603 1.671-.7.131-1.398.097-2.094-.101a3.312 3.312 0 01-1.71-1.123c-.447-.549-.752-1.265-.917-2.145zm2.099-.282c.142.76.43 1.308.865 1.644.437.337.917.456 1.445.357.525-.099.93-.384 1.21-.856.28-.469.35-1.09.205-1.859-.14-.749-.428-1.293-.86-1.629a1.726 1.726 0 00-1.437-.358c-.528.099-.933.384-1.218.857-.283.47-.353 1.086-.21 1.844zm9.387-6.303l.439 1.575-1.359.378.846 3.036c.171.616.283.972.338 1.066a.466.466 0 00.249.203.586.586 0 00.362.005c.185-.052.433-.188.746-.413l.595 1.495c-.405.326-.897.569-1.48.731a2.57 2.57 0 01-1.013.088c-.32-.041-.573-.139-.759-.293-.188-.155-.351-.387-.495-.699-.106-.22-.257-.681-.454-1.387l-.913-3.281-.91.253-.439-1.575.91-.253-.414-1.488 1.653-1.721.74 2.658 1.358-.378zm1.504-3.69l1.425 3.715c.34-.979.944-1.636 1.809-1.969a3.075 3.075 0 011.299-.217c.42.029.768.134 1.049.32.279.185.511.42.696.705.187.284.404.753.654 1.404l1.633 4.255-1.918.737-1.47-3.832c-.292-.76-.515-1.229-.666-1.407a1.026 1.026 0 00-.579-.337c-.234-.049-.49-.021-.773.088a1.719 1.719 0 00-.773.565c-.196.251-.29.555-.287.913 0 .356.119.84.353 1.449l1.395 3.635-1.918.737-3.847-10.024 1.918-.737zm6.821-.688l-.785-1.736 1.872-.847.785 1.736-1.872.847zm3.642 8.046l-3.209-7.09 1.872-.847 3.209 7.09-1.872.847zm6.493-6.012l1.947-.74c.154.781.083 1.486-.207 2.114-.293.626-.808 1.156-1.544 1.587-1.166.683-2.255.808-3.26.372-.801-.354-1.476-.996-2.022-1.93-.652-1.112-.872-2.156-.661-3.126.21-.972.761-1.717 1.65-2.237.996-.584 1.976-.715 2.941-.394.962.323 1.831 1.173 2.603 2.551l-4.438 2.599c.321.519.703.846 1.149.978.443.135.87.082 1.275-.156.278-.163.467-.375.566-.635.102-.263.101-.59.001-.983zm-.949-1.859c-.315-.508-.677-.823-1.085-.943a1.407 1.407 0 00-1.158.136 1.42 1.42 0 00-.708.986c-.087.43.016.888.304 1.371l2.647-1.55zm8.966-.135l-6.648-8.432 1.614-1.272 2.398 3.042c.051-.96.416-1.709 1.099-2.247.744-.587 1.57-.802 2.482-.646.913.156 1.767.739 2.564 1.75.823 1.044 1.21 2.044 1.159 3.001-.052.954-.434 1.714-1.142 2.272a2.79 2.79 0 01-1.245.545 3.247 3.247 0 01-1.493-.089l.707.897-1.495 1.179zm-.913-4.427c.5.634.972 1.026 1.41 1.17.621.211 1.162.134 1.628-.233.357-.281.54-.674.552-1.18.01-.504-.245-1.086-.763-1.743-.553-.701-1.078-1.105-1.576-1.215a1.525 1.525 0 00-1.34.302 1.548 1.548 0 00-.61 1.216c-.019.505.214 1.066.699 1.683zm5.607-6.181l-1.569 1.05c-.375-.693-.504-1.35-.387-1.968.116-.618.539-1.278 1.267-1.977.661-.636 1.23-1.033 1.705-1.188.473-.153.892-.175 1.256-.06.363.115.854.492 1.475 1.138l1.641 1.75c.472.492.846.833 1.118 1.022.272.19.601.355.987.497l-1.471 1.413a7.565 7.565 0 01-.558-.295 2.506 2.506 0 00-.218-.123 3.667 3.667 0 01-.274 1.338 3.196 3.196 0 01-.741 1.073c-.574.552-1.179.832-1.812.837-.631.007-1.178-.23-1.639-.709a2.223 2.223 0 01-.587-1.065 2.056 2.056 0 01.089-1.181c.146-.393.428-.886.846-1.479.567-.795.93-1.38 1.09-1.748l-.144-.149c-.277-.289-.545-.426-.805-.416-.26.015-.586.21-.977.585-.265.255-.42.505-.465.753-.049.248.01.548.173.902zm3.143-.713a13 13 0 01-.685 1.095c-.326.483-.513.83-.559 1.034-.06.324.009.59.212.801.201.209.45.313.75.315.301.003.569-.11.809-.341.267-.256.438-.59.513-.999a1.294 1.294 0 00-.12-.831c-.083-.163-.295-.423-.636-.778l-.284-.296zm6.819-1.582l-1.423 1.482-5.613-5.392 1.319-1.373.797.765c-.15-.598-.192-1.048-.128-1.349.065-.302.213-.572.443-.812a2.629 2.629 0 011.22-.71l.853 1.702c-.403.095-.708.25-.914.464a1.153 1.153 0 00-.338.695c-.023.255.074.566.293.936.22.37.807 1.014 1.761 1.93l1.73 1.662z" fill="#2B2A29"/></svg>