<svg width="326" height="94" viewBox="0 0 326 94" fill="none" xmlns="http://www.w3.org/2000/svg">
<path d="M27.8585 94.1565H26.1366V0H27.8585V94.1565ZM9.1936 94.1565H7.47162V0H9.1936V94.1565ZM1.72198 94.1565H0V0H1.72198V94.1565ZM24.1077 94.1565H18.665V0H24.1077V94.1565ZM16.6661 94.1565H11.1924V0H16.6661V94.1565ZM57.7075 94.1565H55.9855V0H57.7075V94.1565ZM53.9566 94.1565H52.2347V0H53.9566V94.1565ZM50.2358 94.1565H48.5139V0H50.2358V94.1565ZM35.2908 94.1565H29.8489V0H35.2908V94.1565ZM46.5151 94.1565H41.0413V0H46.5151V94.1565ZM61.4198 94.1565H59.6978V0H61.4198V94.1565ZM87.5564 94.1565H85.8344V0H87.5564V94.1565ZM72.6122 94.1565H70.8902V0H72.6122V94.1565ZM83.8055 94.1565H78.3628V0H83.8055V94.1565ZM68.8914 94.1565H63.4177V0H68.8914V94.1565ZM102.461 94.1565H100.739V0H102.461V94.1565ZM98.7403 94.1565H97.0183V0H98.7403V94.1565ZM106.213 94.1565H104.46V0H106.213V94.1565ZM94.9886 94.1565H89.5467V0H94.9886V94.1565ZM117.405 94.1565H111.932V0H117.405V94.1565ZM121.118 94.1565H119.396V0H121.118V94.1565ZM147.254 94.1565H145.532V0H147.254V94.1565ZM132.31 94.1565H130.588V0H132.31V94.1565ZM143.503 94.1565H138.061V0H143.503V94.1565ZM128.589 94.1565H123.115V0H128.589V94.1565ZM150.967 94.1565H149.245V0H150.967V94.1565ZM169.631 94.1565H167.91V0H169.631V94.1565ZM177.103 94.1565H175.381V0H177.103V94.1565ZM165.911 94.1565H160.437V0H165.911V94.1565ZM158.438 94.1565H152.964V0H158.438V94.1565ZM203.201 94.1565H201.479V0H203.201V94.1565ZM188.287 94.1565H186.565V0H188.287V94.1565ZM206.952 94.1565H205.23V0H206.952V94.1565ZM184.535 94.1565H179.093V0H184.535V94.1565ZM195.76 94.1565H190.286V0H195.76V94.1565ZM229.329 94.1565H227.607V0H229.329V94.1565ZM214.384 94.1565H212.662V0H214.384V94.1565ZM210.664 94.1565H208.942V0H210.664V94.1565ZM221.857 94.1565H216.414V0H221.857V94.1565ZM236.801 94.1565H231.328V0H236.801V94.1565ZM240.513 94.1565H238.791V0H240.513V94.1565ZM266.65 94.1565H264.928V0H266.65V94.1565ZM251.706 94.1565H249.984V0H251.706V94.1565ZM262.899 94.1565H257.456V0H262.899V94.1565ZM247.985 94.1565H242.511V0H247.985V94.1565ZM289.027 94.1565H287.305V0H289.027V94.1565ZM277.834 94.1565H276.112V0H277.834V94.1565ZM281.555 94.1565H279.833V0H281.555V94.1565ZM274.082 94.1565H268.64V0H274.082V94.1565ZM296.499 94.1565H291.026V0H296.499V94.1565ZM326.348 94.1565H324.626V0H326.348V94.1565ZM307.683 94.1565H305.961V0H307.683V94.1565ZM300.211 94.1565H298.489V0H300.211V94.1565ZM322.597 94.1565H317.154V0H322.597V94.1565ZM315.155 94.1565H309.681V0H315.155V94.1565Z" fill="black"/>
</svg>
