<svg width="69" height="77" viewBox="0 0 69 77" fill="none" xmlns="http://www.w3.org/2000/svg">
<path fill-rule="evenodd" clip-rule="evenodd" d="M34.4733 1.20825C52.953 1.20825 67.9337 16.2988 67.9337 34.914C67.9337 53.5292 52.953 68.6198 34.4733 68.6198C15.9937 68.6198 1.01294 53.5292 1.01294 34.914C1.01294 16.2988 15.9937 1.20825 34.4733 1.20825Z" fill="#FEFEFE"/>
<path fill-rule="evenodd" clip-rule="evenodd" d="M34.4734 0.238525C53.4814 0.238525 68.8962 15.7667 68.8962 34.9139C68.8962 54.0616 53.4814 69.5896 34.4734 69.5896C15.4654 69.5896 0.050293 54.0616 0.050293 34.9139C0.050293 15.7667 15.4654 0.238525 34.4734 0.238525ZM34.4734 1.63521C52.7156 1.63521 67.5097 16.5381 67.5097 34.9139C67.5097 53.2902 52.7156 68.1928 34.4734 68.1928C16.2312 68.1928 1.43684 53.2902 1.43684 34.9139C1.43684 16.5381 16.2312 1.63521 34.4734 1.63521Z" fill="#2B2A29"/>
<path fill-rule="evenodd" clip-rule="evenodd" d="M44.391 51.0034C43.2205 51.5086 42.0448 51.198 41.0022 50.615C39.6066 49.8346 38.977 48.3458 38.8906 46.828C39.2453 46.946 39.6139 47.012 39.968 47.0104C40.687 47.007 41.3571 46.7494 41.8221 46.1403L41.9136 46.0204L41.9714 45.8739C42.1586 45.3992 42.1397 44.9496 41.9832 44.5503L41.9817 44.5509C41.8212 44.1437 41.5234 43.8172 41.1694 43.5946C41.0987 43.5425 41.0382 43.4887 40.9872 43.434C40.8716 43.3098 40.8224 43.1831 40.8252 43.062C40.8294 42.8821 40.9169 42.6731 41.0644 42.4573C41.163 42.3131 41.2885 42.1693 41.4356 42.0302C41.6444 41.833 41.9046 41.6418 42.213 41.4798C44.2326 40.7134 46.7093 40.8756 48.714 42.5648C49.7931 43.4741 50.1172 44.688 50.0423 46.0783C49.814 48.27 47.3911 49.5968 45.3452 48.7811C44.8555 48.5857 43.8858 47.964 43.3807 48.2488C43.1132 48.3994 42.996 48.8436 43.1921 49.1193C43.4931 49.5423 43.923 49.6117 44.3365 49.8782C44.9739 50.2887 45.0149 50.734 44.391 51.0034ZM44.4634 45.5737C43.9541 45.7231 43.4673 46.4978 44.1019 46.6057C45.4246 46.8305 45.0974 47.0345 45.6428 47.123C46.4478 47.2535 46.6424 46.4481 46.1227 45.9089C45.7964 45.5705 45.0724 45.3952 44.4634 45.5737Z" fill="#2B2A29"/>
<path fill-rule="evenodd" clip-rule="evenodd" d="M27.1196 27.2744C26.9978 29.8199 27.1696 32.1006 28.4955 33.872C29.2767 34.9158 31.5496 34.0824 31.6702 32.4261C31.9211 30.2348 31.832 28.9164 32.3364 26.8371C32.895 24.534 31.6051 23.9015 30.3679 23.5036C29.1052 23.0975 27.266 24.2209 27.1196 27.2744ZM30.0013 16.3584C31.4303 16.3868 32.5663 17.5771 32.5382 19.0166C32.5101 20.4561 31.3284 21.6005 29.8994 21.5722C28.4704 21.5438 27.3344 20.3535 27.3625 18.914C27.3906 17.4745 28.5723 16.3301 30.0013 16.3584Z" fill="#2B2A29"/>
<path fill-rule="evenodd" clip-rule="evenodd" d="M20.2603 21.3551C20.6199 19.2513 20.9413 18.1975 23.1309 17.9016C25.2937 17.8982 25.8997 19.3143 26.1719 21.2236C26.3684 23.6677 26.2683 26.1685 25.7727 28.5556C25.2675 30.8563 24.5296 33.1141 23.3082 35.1633C22.3708 36.6163 21.1939 37.626 19.4175 37.829C17.3808 37.957 15.2902 37.0893 13.5587 36.0945L13.393 35.9959L13.2298 35.8961L13.0699 35.795L12.9135 35.6931L12.7608 35.5902L12.6117 35.4867L12.4687 35.3838L12.0635 35.0728C10.6149 33.8409 9.60524 32.4299 9.2142 30.5618C8.95908 28.8371 9.52664 27.3936 10.7055 26.0271C12.0679 24.4477 15.2048 23.3961 16.5074 25.1882C17.2774 26.2982 17.7972 30.4476 19.3777 30.4048C20.6862 30.1027 20.4599 27.4124 20.4406 26.453C20.3894 24.7491 20.0281 23.0653 20.2603 21.3551Z" fill="#2B2A29"/>
<path fill-rule="evenodd" clip-rule="evenodd" d="M35.3753 19.5446C35.7538 18.6228 35.5765 17.7327 36.2889 16.9406C37.1269 16.0088 38.369 15.5304 39.7082 15.9095C41.0373 16.4452 41.259 17.2335 40.6123 18.4923C40.2966 19.1066 40.0326 19.7805 39.7938 20.5333C39.517 21.4053 39.748 21.936 40.8151 22.235C43.1673 22.9805 42.2505 25.7135 39.8656 25.61C38.8717 25.5668 38.5743 26.2452 38.4541 27.0247C38.2429 28.3961 38.2464 29.9046 38.3228 30.905C38.4664 32.783 38.2489 33.6057 36.8586 33.844C34.126 34.3126 32.9808 32.0812 32.9525 30.0438C32.9349 28.7725 33.3265 27.1255 33.8001 25.5943C34.1 24.6244 33.2194 24.0069 32.6004 23.6165C31.6568 23.0215 31.9314 20.9543 33.7846 20.8844C34.5707 20.8549 34.9163 20.6616 35.3753 19.5446Z" fill="#2B2A29"/>
<path fill-rule="evenodd" clip-rule="evenodd" d="M45.238 30.6297L45.3928 30.6916L45.5322 30.7555L45.6703 30.8263L45.8061 30.9017L45.938 30.9795L46.066 31.0577L46.1887 31.1348L46.3055 31.2085L46.4156 31.2769L46.5196 31.3386L46.6174 31.3918L46.712 31.4345L46.8085 31.4649L46.9249 31.4742L47.0743 31.4197L47.1907 31.2601L47.2198 31.0889L47.2081 30.9504L47.1776 30.8229L47.1339 30.6938L47.0766 30.5591L47.0072 30.4196L46.9262 30.2762L46.8341 30.1311L46.7315 29.9868L46.6192 29.8455L46.4975 29.7102L46.3673 29.5832L46.2283 29.4677L46.0815 29.3666L45.9262 29.2833L45.7561 29.2189L45.4613 29.1825L45.1825 29.2439L44.9427 29.3942L44.7632 29.6292L44.6862 29.9351L44.756 30.2406L44.9528 30.476L45.238 30.6297ZM42.923 22.2423L42.9466 22.1686L42.982 22.0735L43.0223 21.9792L43.0677 21.8851L43.1175 21.792L43.1722 21.6999L43.2317 21.6086L43.2963 21.5179L43.3651 21.4283L43.4387 21.3396L43.5167 21.2525L43.5994 21.1663L43.6861 21.0817L43.7777 20.9983L43.873 20.9165L43.9703 20.8384L44.2692 20.6237L44.594 20.4255L44.9446 20.2438L45.3192 20.0796L45.7151 19.9346L46.1304 19.8095L46.5621 19.7059L47.0086 19.6246L47.4668 19.5669L47.9351 19.5338L48.4109 19.5261L48.8923 19.5449L49.3764 19.5915L49.8616 19.6664L50.3451 19.7708L50.8253 19.9056L51.2991 20.0718L51.7652 20.2702L52.221 20.5018L52.6647 20.7673L53.0935 21.0676L53.5061 21.4041L53.8999 21.7774L54.2732 22.1883L54.6236 22.6383L54.9495 23.1283L55.2485 23.6595L55.5188 24.2328L55.758 24.8497L55.9641 25.5112L56.1349 26.2191L56.2691 26.9764L56.3012 27.2148L56.3294 27.457L56.353 27.7001L56.3724 27.9434L56.3868 28.1878L56.3972 28.4327L56.4031 28.6783L56.4048 28.924L56.4018 29.1703L56.3947 29.4171L56.3834 29.6639L56.3682 29.9111L56.3486 30.1584L56.3252 30.4054L56.2975 30.6528L56.2664 30.8996L56.2308 31.1465L56.1915 31.3932L56.1482 31.6395L56.1015 31.8852L56.0508 32.1307L55.9965 32.3756L55.9384 32.6198L55.877 32.863L55.8118 33.1057L55.7432 33.3474L55.671 33.5884L55.5956 33.8281L55.5167 34.0668L55.4346 34.3044L55.349 34.5407L55.261 34.7748L55.1678 35.0084L55.0734 35.231L54.9767 35.4439L54.8784 35.6468L54.7778 35.8398L54.6757 36.0233L54.5716 36.1971L54.466 36.3615L54.3585 36.5163L54.2496 36.6619L54.1387 36.7985L54.0266 36.9259L53.9129 37.0447L53.7977 37.1544L53.6807 37.2558L53.5626 37.3485L53.4423 37.4333L53.3205 37.5098L53.1969 37.5785L53.0717 37.6392L52.9444 37.6924L52.8152 37.7378L52.6838 37.7757L52.5506 37.806L52.4148 37.8291L52.277 37.8445L52.1366 37.8525L51.9942 37.8531L51.8493 37.8464L51.7022 37.8321L51.5528 37.8109L51.4012 37.7816L51.238 37.7433L51.0785 37.6985L50.9219 37.6476L50.7684 37.591L50.6172 37.529L50.4687 37.4617L50.3224 37.3898L50.178 37.313L50.0351 37.2321L49.894 37.1475L49.7543 37.0593L49.6161 36.9676L49.4784 36.873L49.3418 36.7758L49.2058 36.6764L49.0702 36.575L48.9344 36.472L48.799 36.3676C47.3756 35.2684 45.3927 34.7115 43.6658 34.3243C42.1669 33.9956 40.2444 33.7992 39.4854 31.4733C38.9703 28.9748 40.0163 27.5716 40.9354 26.7024C41.6401 26.0359 42.8304 25.4795 44.0744 25.7386C45.4256 26.0199 46.0229 27.2789 47.1007 27.9964C47.8013 28.3296 48.2725 27.8933 48.7703 27.2366L48.8532 27.0418L48.9106 26.868L48.9518 26.6925L48.9769 26.516L48.9856 26.3404L48.9789 26.167L48.9564 25.9964L48.919 25.829L48.8669 25.6665L48.8012 25.509L48.7221 25.357L48.6305 25.2103L48.5261 25.0697L48.4102 24.9353L48.2826 24.8073L48.1436 24.6856L47.9933 24.5707L47.8323 24.463L47.6607 24.3626L47.4789 24.2695L47.2864 24.1846L47.0841 24.1078L46.8717 24.0395L46.65 23.98L46.4182 23.9299L46.1775 23.8894L45.9276 23.8588L45.6687 23.8383L45.401 23.8287L45.1247 23.8303L44.84 23.8434L44.5544 23.8675L44.3536 23.8771L44.1683 23.8645L43.9917 23.8317L43.8252 23.7797L43.6689 23.7105L43.525 23.6251L43.3936 23.5256L43.2763 23.4127L43.1733 23.2888L43.0861 23.1552L43.0151 23.0136L42.9611 22.8655L42.9243 22.7121L42.9057 22.5549L42.9055 22.394L42.923 22.2423Z" fill="#2B2A29"/>
<path fill-rule="evenodd" clip-rule="evenodd" d="M29.393 47.0324L29.508 47.1707L29.595 47.2823L29.6798 47.3957L29.7616 47.5104L29.8406 47.6257L29.9161 47.7421L29.9891 47.8596L30.0586 47.9781L30.1252 48.0975L30.1884 48.2178L30.2487 48.3393L30.3057 48.4617L30.3596 48.5847L30.4101 48.7089L30.4575 48.8341L30.5015 48.9602L30.5422 49.0865L30.5983 49.2806L30.6484 49.4756L30.6926 49.6713L30.7308 49.8671L30.7627 50.0636L30.7887 50.2601L30.8087 50.4569L30.8228 50.6532L30.8306 50.8492L30.8325 51.0448L30.8283 51.24L30.8182 51.4342L30.802 51.6275L30.7799 51.8194L30.7516 52.0101L30.7174 52.1992L30.6771 52.3869L30.6308 52.5729L30.5784 52.7571L30.5202 52.9387L30.4558 53.1184L30.3856 53.2955L30.3092 53.4701L30.2272 53.6417L30.1387 53.8109L30.0444 53.9768L29.9442 54.1394L29.8381 54.2988L29.7256 54.4548L29.6075 54.6069L29.4831 54.7554L29.3529 54.8998L29.2329 55.0236L29.1078 55.1443L28.9777 55.2619L28.8433 55.3757L28.7043 55.4865L28.561 55.5933L28.4139 55.6966L28.2629 55.7959L28.1082 55.8915L27.9504 55.983L27.7892 56.0705L27.6254 56.1537L27.4587 56.2325L27.2896 56.3072L27.1184 56.377L26.9452 56.4424L26.77 56.5032L26.5935 56.5593L26.4155 56.6105L26.2364 56.6566L26.0564 56.6978L25.876 56.7337L25.6951 56.7646L25.5141 56.7902L25.3329 56.8104L25.1521 56.8251L24.9717 56.8343L24.7922 56.8379L24.6135 56.8359L24.4359 56.828L24.2599 56.8145L24.0853 56.7947L23.9218 56.771L23.7591 56.7423L23.5974 56.7084L23.4371 56.6695L23.2778 56.6259L23.12 56.5771L22.9637 56.5234L22.8092 56.4647L22.6563 56.4012L22.5056 56.3327L22.3566 56.2594L22.21 56.181L22.0657 56.0979L21.9239 56.0095L21.7846 55.9165L21.648 55.8184L21.5139 55.7158L21.3832 55.608L21.2554 55.4954L21.1308 55.3778L21.0094 55.2555L20.8916 55.1284L20.7774 54.9964L20.6668 54.8592L20.5598 54.7174L20.4572 54.5707L20.3582 54.419L20.2638 54.2623L20.1733 54.1011L20.0875 53.9347L20.0062 53.7633L19.9308 53.5895L19.8115 53.2636L19.7265 52.9459L19.6726 52.6345L19.6487 52.3296L19.6526 52.0319L19.6829 51.7419L19.7381 51.4605L19.817 51.1881L19.9179 50.9253L20.0395 50.6733L20.1802 50.4327L20.3388 50.2042L20.5136 49.9891L20.7033 49.788L20.9058 49.6022L21.1201 49.432L21.3441 49.2791L21.5765 49.144L21.8155 49.0274L22.0596 48.9302L22.3067 48.8535L22.5555 48.7975L22.8044 48.7634L23.0517 48.7514L23.2954 48.7627L23.5348 48.7975L23.7683 48.8565L23.9948 48.9404L24.2131 49.0503L24.4222 49.1868L24.621 49.3513L24.9125 49.6524C25.5613 49.3371 25.8858 48.9431 25.8905 48.2068C25.8952 47.4575 25.584 46.8166 25.1521 46.219C24.5882 45.4393 22.9735 44.2372 22.1612 43.7352C21.5494 44.9264 19.7066 45.655 18.6198 44.3568C17.6448 43.1919 18.3753 41.5002 19.8645 41.0897C20.8251 40.8249 21.3954 40.7567 22.4832 40.0032C23.0146 39.6351 23.6703 38.8804 23.9232 38.9628C23.7598 39.4642 23.6989 40.0737 23.7819 40.8262C23.8632 41.5632 24.0583 42.3448 24.3564 43.0906C24.7866 44.1676 25.4386 45.1841 26.283 45.9104C27.1436 46.6507 28.1887 47.0951 29.393 47.0324Z" fill="#2B2A29"/>
<path fill-rule="evenodd" clip-rule="evenodd" d="M40.8278 37.1334C42.7799 36.6633 44.1349 36.9232 44.9909 37.7711C45.8246 38.5969 45.7147 39.7959 43.696 39.9453C42.3693 40.0435 41.3449 40.6111 40.689 41.2309C39.6275 42.2341 39.2664 43.6066 40.5899 44.5249C40.9081 44.7242 41.119 45.0674 40.9602 45.4699C40.4492 46.1392 39.3629 45.9779 38.5877 45.481C35.2461 43.3393 36.9289 38.0723 40.8278 37.1334Z" fill="#2B2A29"/>
<path fill-rule="evenodd" clip-rule="evenodd" d="M36.0559 46.5872C36.4155 47.8539 35.7766 48.618 34.7773 48.7086C33.4339 48.8301 32.9962 47.9585 32.8429 46.7579C32.6119 44.947 33.1093 43.8321 33.6522 41.9605C34.077 40.4965 36.0422 40.4726 35.7598 42.0859C35.496 43.594 35.5616 44.8464 36.0559 46.5872Z" fill="#2B2A29"/>
<path fill-rule="evenodd" clip-rule="evenodd" d="M27.9692 39.1768C27.8976 40.3302 28.5969 41.0255 28.945 41.1624C30.4591 41.7582 31.0106 40.4458 30.384 37.5261C30.2222 36.7718 30.6937 36.4068 31.4405 36.3104C32.2219 36.2769 32.4167 36.3843 32.583 37.2334C32.7904 38.2917 32.762 40.0378 32.6388 41.0098C32.2945 43.7244 31.7074 45.186 30.5477 45.6562C27.3168 46.9662 25.1699 43.467 24.8655 40.706C24.6941 39.1513 25.262 38.5213 25.996 38.1915C27.0296 37.7269 28.0722 37.5166 27.9692 39.1768Z" fill="#2B2A29"/>
<path fill-rule="evenodd" clip-rule="evenodd" d="M35.3392 36.1057C36.3492 36.0699 37.197 36.8659 37.2325 37.8832C37.268 38.9006 36.4778 39.7546 35.4679 39.7904C34.4579 39.8261 33.6102 39.0302 33.5746 38.0128C33.5391 36.9955 34.3293 36.1415 35.3392 36.1057Z" fill="#2B2A29"/>
<path fill-rule="evenodd" clip-rule="evenodd" d="M56.8484 15.5874C58.3999 15.5874 59.6576 16.8544 59.6576 18.4171C59.6576 19.9799 58.3999 21.2469 56.8484 21.2469C55.2971 21.2469 54.0393 19.9799 54.0393 18.4171C54.0393 16.8544 55.2971 15.5874 56.8484 15.5874ZM55.6982 19.9612V16.8766H57.0554C57.3284 16.8766 57.5358 16.9046 57.6776 16.9599C57.8194 17.0151 57.9328 17.1128 58.0176 17.2528C58.1024 17.3928 58.1445 17.5479 58.1445 17.7174C58.1445 17.9363 58.0738 18.1209 57.9335 18.271C57.7931 18.421 57.5764 18.5158 57.2828 18.5568C57.3904 18.6084 57.472 18.6598 57.5272 18.7104C57.6459 18.8192 57.7582 18.9563 57.8622 19.1211L58.3919 19.9612H57.8858L57.4809 19.3193C57.3637 19.1331 57.2658 18.9916 57.1894 18.8935C57.1127 18.795 57.0439 18.7268 56.9833 18.6874C56.9236 18.6486 56.8618 18.6202 56.7987 18.6056C56.7534 18.5951 56.6782 18.5913 56.5735 18.5913H56.1045V19.9612H55.6982ZM56.1045 18.238H56.974C57.1594 18.238 57.3033 18.2182 57.4075 18.1798C57.5114 18.1414 57.5902 18.0797 57.6442 17.9946C57.6979 17.9096 57.7254 17.8179 57.7254 17.7181C57.7254 17.5723 57.6733 17.4516 57.5686 17.3576C57.4638 17.2636 57.2983 17.2169 57.0724 17.2169H56.1045V18.238Z" fill="#2B2A29"/>
<path d="M20.562 11.0576L21.192 10.5765C21.2926 10.6934 21.4061 10.7622 21.5325 10.7818C21.6587 10.8026 21.8024 10.7683 21.9625 10.6806C22.1391 10.584 22.2542 10.4788 22.3087 10.3646C22.3436 10.286 22.3401 10.2078 22.2987 10.1309C22.2708 10.0792 22.2308 10.0447 22.18 10.0282C22.1283 10.0142 22.0354 10.0251 21.9027 10.062C21.2849 10.241 20.8754 10.3201 20.6732 10.2998C20.3922 10.2707 20.1847 10.131 20.05 9.88128C19.9279 9.65486 19.9144 9.41667 20.0081 9.16623C20.1019 8.91579 20.3341 8.6892 20.7049 8.48628C21.0582 8.29288 21.3526 8.20754 21.587 8.22967C21.8218 8.25264 22.0332 8.3599 22.2209 8.55253L21.6439 9.02417C21.5614 8.93729 21.466 8.88778 21.3596 8.87566C21.2532 8.86362 21.1285 8.89723 20.9851 8.97571C20.8041 9.0747 20.6883 9.17054 20.6369 9.26463C20.6041 9.32924 20.6036 9.38999 20.6343 9.44679C20.6609 9.49606 20.7058 9.52565 20.7699 9.53492C20.8568 9.54683 21.1047 9.49452 21.5148 9.37836C21.9247 9.26211 22.2343 9.22475 22.4439 9.26691C22.6532 9.31036 22.817 9.44255 22.9351 9.66148C23.0635 9.89966 23.0756 10.1592 22.9698 10.4389C22.8646 10.7183 22.6183 10.9645 22.2301 11.1769C21.8785 11.3694 21.561 11.4501 21.2783 11.4198C20.9964 11.389 20.7575 11.2687 20.562 11.0576ZM22.7331 7.11134L22.4586 6.44157L23.1757 6.14333L23.4502 6.8131L22.7331 7.11134ZM24.006 10.2172L22.8843 7.48035L23.6015 7.18211L24.7231 9.91899L24.006 10.2172ZM28.026 8.85343L27.2815 9.07379L26.8593 7.62598C26.77 7.31944 26.6959 7.12636 26.638 7.04631C26.5792 6.9657 26.5074 6.91164 26.4202 6.88285C26.3332 6.85414 26.239 6.85526 26.1375 6.88527C26.0071 6.92386 25.9008 6.994 25.8182 7.09576C25.7348 7.19769 25.6919 7.31342 25.6878 7.44148C25.6833 7.57069 25.7275 7.79347 25.8202 8.11093L26.1948 9.39538L25.4504 9.61574L24.6218 6.77493L25.312 6.57068L25.4336 6.98759C25.5878 6.59603 25.8522 6.34535 26.228 6.23413C26.3929 6.18539 26.5529 6.17068 26.707 6.18956C26.8622 6.20896 26.9875 6.25416 27.0841 6.32563C27.1818 6.39784 27.2614 6.48825 27.3229 6.59792C27.3853 6.70735 27.4478 6.87112 27.5116 7.09005L28.026 8.85343ZM30.9852 6.19533L30.2524 6.45425C30.2029 6.30725 30.1267 6.20314 30.0239 6.14106C29.9212 6.07988 29.7985 6.06048 29.655 6.08405C29.4641 6.11532 29.322 6.20706 29.2299 6.35897C29.1379 6.51087 29.117 6.74261 29.1675 7.0551C29.2237 7.40236 29.321 7.63782 29.4598 7.76241C29.5985 7.88707 29.7647 7.93297 29.9585 7.90125C30.1038 7.87737 30.2162 7.8156 30.2949 7.71696C30.3746 7.6181 30.4165 7.46385 30.4217 7.25298L31.1973 7.25876C31.1755 7.62066 31.0681 7.90899 30.8752 8.12368C30.6822 8.33829 30.3994 8.47619 30.026 8.53754C29.6029 8.60691 29.2429 8.52728 28.9479 8.29918C28.6517 8.07035 28.4655 7.71752 28.3883 7.23975C28.3101 6.75644 28.3762 6.3603 28.5851 6.04952C28.794 5.73878 29.1143 5.5485 29.5456 5.47777C29.8977 5.41999 30.1906 5.45095 30.424 5.56969C30.6565 5.68857 30.8432 5.89678 30.9852 6.19533ZM33.5295 7.134L34.3129 7.20582C34.2356 7.49873 34.0947 7.72792 33.8923 7.89397C33.689 8.05925 33.4264 8.15456 33.1054 8.17907C32.5961 8.21794 32.2062 8.07892 31.9372 7.76185C31.7239 7.50742 31.6015 7.17539 31.5706 6.76481C31.5338 6.27559 31.632 5.88193 31.8643 5.58573C32.0966 5.28864 32.4071 5.12574 32.7949 5.09609C33.2298 5.06292 33.5842 5.18174 33.8582 5.45266C34.1314 5.72355 34.2854 6.15906 34.3191 6.75911L32.3821 6.90695C32.4051 7.13785 32.4808 7.31321 32.6101 7.43311C32.7383 7.55294 32.8919 7.60613 33.0689 7.59258C33.1902 7.58337 33.2894 7.54236 33.3663 7.4697C33.4442 7.39704 33.4982 7.2852 33.5295 7.134ZM33.5151 6.33988C33.4925 6.11367 33.4221 5.94552 33.3031 5.83641C33.184 5.72628 33.046 5.67761 32.8879 5.68976C32.7194 5.70258 32.5848 5.77587 32.484 5.90844C32.3833 6.04109 32.3423 6.21487 32.3604 6.42802L33.5151 6.33988ZM39.1621 7.75253L39.0609 8.46985L36.3639 8.08404C36.4314 7.81521 36.5556 7.56982 36.7357 7.34683C36.9159 7.12391 37.2503 6.84132 37.7372 6.49897C38.1297 6.22286 38.373 6.03195 38.4679 5.92746C38.596 5.78252 38.6716 5.63195 38.6937 5.47472C38.7181 5.30156 38.6911 5.16227 38.6117 5.05589C38.5332 4.94951 38.4126 4.88528 38.2509 4.86214C38.0903 4.83913 37.9563 4.86988 37.8471 4.95413C37.7391 5.03757 37.6621 5.19175 37.6151 5.41652L36.8578 5.22943C36.9638 4.80863 37.1501 4.5222 37.4175 4.37022C37.6847 4.21926 37.9988 4.16916 38.3605 4.22091C38.7567 4.27757 39.0526 4.43038 39.2493 4.67834C39.4451 4.92629 39.5204 5.21084 39.4751 5.53177C39.4494 5.71438 39.3922 5.88295 39.3044 6.03944C39.2167 6.19495 39.0896 6.35256 38.923 6.51304C38.8135 6.62037 38.6201 6.76835 38.3453 6.95867C38.0698 7.1487 37.8946 7.27543 37.8196 7.34059C37.7439 7.40464 37.6813 7.46963 37.6313 7.53354L39.1621 7.75253ZM41.7596 4.83209C42.1427 4.91915 42.4109 5.12532 42.5654 5.45088C42.7492 5.83578 42.7567 6.40761 42.5872 7.16453C42.4179 7.9204 42.1664 8.43452 41.8337 8.70583C41.5581 8.92976 41.2293 8.99836 40.8462 8.91131C40.4613 8.82387 40.1844 8.604 40.0156 8.25187C39.8467 7.8996 39.8483 7.33947 40.0199 6.57334C40.1883 5.82114 40.4394 5.30899 40.772 5.03757C41.0477 4.81364 41.3765 4.74504 41.7596 4.83209ZM41.6175 5.46653C41.5273 5.44601 41.4396 5.45728 41.3564 5.50078C41.2723 5.54301 41.1934 5.63626 41.1205 5.78049C41.0247 5.96632 40.9242 6.29443 40.8192 6.76278C40.7142 7.23218 40.6651 7.5592 40.672 7.74497C40.6787 7.93073 40.7106 8.06079 40.7675 8.13516C40.8244 8.2094 40.898 8.25642 40.9882 8.27691C41.0785 8.29739 41.1662 8.28612 41.2504 8.24287C41.3334 8.20033 41.4123 8.10718 41.4852 7.96295C41.5806 7.7789 41.681 7.45181 41.7861 6.98251C41.891 6.51406 41.9401 6.18697 41.9332 6.0012C41.9264 5.81544 41.8948 5.68444 41.8379 5.6102C41.7812 5.53495 41.7078 5.48701 41.6175 5.46653ZM45.3065 5.95011C45.6738 6.09007 45.911 6.33176 46.019 6.6759C46.1479 7.08277 46.0763 7.65007 45.8039 8.37587C45.5319 9.10068 45.2119 9.57453 44.845 9.79664C44.5411 9.97974 44.206 10.0016 43.8387 9.86174C43.4696 9.72118 43.2257 9.46472 43.1072 9.09231C42.9887 8.71977 43.0676 8.16528 43.3432 7.43069C43.6139 6.70945 43.9333 6.23742 44.3002 6.01528C44.6041 5.8321 44.9392 5.81029 45.3065 5.95011ZM45.0782 6.55849C44.9916 6.52558 44.9033 6.52446 44.8148 6.55583C44.7258 6.58588 44.6348 6.66715 44.5427 6.79979C44.4221 6.9704 44.2772 7.28121 44.1087 7.73033C43.9398 8.1804 43.8461 8.49741 43.8272 8.6823C43.8082 8.86719 43.8218 9.0005 43.8679 9.08205C43.914 9.16357 43.9804 9.22044 44.067 9.25335C44.1535 9.28627 44.2419 9.28746 44.3313 9.2564C44.4193 9.2259 44.5103 9.1448 44.6025 9.01205C44.7224 8.84327 44.867 8.53337 45.0358 8.08341C45.2043 7.63421 45.2981 7.3171 45.317 7.13228C45.3359 6.94732 45.3227 6.81317 45.2766 6.73165C45.2308 6.64915 45.1647 6.59151 45.0782 6.55849ZM47.1062 7.54684L47.4425 6.90649L49.7954 8.16027L49.5305 8.66455C49.2351 8.75338 48.8934 8.92423 48.5034 9.17677C48.1142 9.4298 47.7599 9.73039 47.442 10.0794C47.1242 10.4285 46.8822 10.7632 46.7166 11.0826L46.0557 10.7305C46.3301 10.2366 46.6998 9.78071 47.1658 9.36317C47.632 8.94692 48.1336 8.61825 48.6714 8.38101L47.1062 7.54684Z" fill="#2B2A29"/>
<path d="M7.03953 61.1529L7.41673 61.518L7.60337 61.3221C7.81163 61.1038 7.99055 60.9629 8.1394 60.9002C8.28901 60.8367 8.45764 60.8316 8.64609 60.8842C8.8354 60.9376 9.02517 61.0555 9.21542 61.2397C9.40984 61.4277 9.57312 61.6418 9.70452 61.881L9.163 62.2737C9.07682 62.1406 8.98286 62.024 8.88021 61.9247C8.77933 61.8271 8.68509 61.7808 8.5968 61.785C8.50836 61.7893 8.40029 61.8577 8.27309 61.991L8.09675 62.1759L8.60799 62.6706L8.09303 63.2106L7.58182 62.7159L5.62215 64.7709L4.94214 64.1128L6.90177 62.0579L6.52457 61.6929L7.03953 61.1529ZM7.18442 66.2443L6.47938 65.6136L8.85139 62.9232L9.50488 63.5079L9.16821 63.8897C9.43981 63.8098 9.64535 63.7819 9.78496 63.8062C9.92449 63.8306 10.0509 63.8943 10.165 63.9964C10.3262 64.1406 10.4419 64.3244 10.5127 64.5469L9.74707 64.9716C9.69635 64.7872 9.62001 64.6493 9.51792 64.5581C9.41846 64.4691 9.30997 64.4215 9.19345 64.4145C9.07602 64.4084 8.93517 64.4587 8.76932 64.5667C8.60333 64.6748 8.3186 64.9579 7.9156 65.4149L7.18442 66.2443ZM10.8656 67.7468L11.5232 68.4458C11.2192 68.6506 10.9081 68.7458 10.591 68.7336C10.2738 68.7199 9.95825 68.5946 9.64588 68.3574C9.15028 67.9811 8.9052 67.5389 8.91237 67.0321C8.92067 66.6274 9.07349 66.2255 9.3724 65.8259C9.72864 65.3498 10.132 65.0701 10.58 64.9877C11.0288 64.9044 11.4419 65.0068 11.8193 65.2934C12.2426 65.6147 12.4711 66.0098 12.5055 66.4785C12.5387 66.9466 12.3321 67.4683 11.8848 68.0432L9.99965 66.6118C9.83665 66.8412 9.76591 67.0624 9.78837 67.2762C9.80988 67.4894 9.9077 67.6619 10.0798 67.7927C10.198 67.8824 10.3212 67.9253 10.4492 67.9212C10.5781 67.9178 10.7165 67.8594 10.8656 67.7468ZM11.4853 67.0106C11.6448 66.7859 11.7146 66.5756 11.6931 66.3797C11.6722 66.183 11.585 66.027 11.431 65.9102C11.2671 65.7857 11.086 65.7437 10.8883 65.7832C10.6907 65.8227 10.5149 65.9482 10.3614 66.1572L11.4853 67.0106ZM11.8878 68.6379L12.7657 69.0312C12.701 69.2077 12.6948 69.3697 12.7484 69.5167C12.8004 69.6642 12.9209 69.7982 13.1074 69.9185C13.3132 70.0511 13.4918 70.1129 13.6444 70.1043C13.748 70.0956 13.8286 70.046 13.8854 69.9565C13.9237 69.8961 13.9366 69.8331 13.9244 69.7689C13.9088 69.7054 13.8429 69.6121 13.7261 69.4915C13.1746 68.9341 12.8508 68.5414 12.7537 68.3128C12.6196 67.9943 12.6455 67.69 12.8305 67.399C12.9981 67.1353 13.2419 66.9811 13.5614 66.9347C13.881 66.8884 14.2567 67.0045 14.6886 67.2831C15.1 67.5484 15.363 67.814 15.477 68.0784C15.5903 68.3435 15.6011 68.6331 15.5075 68.9474L14.6708 68.6053C14.7143 68.466 14.7107 68.3346 14.6611 68.2134C14.6115 68.0922 14.5027 67.9782 14.3356 67.8704C14.125 67.7346 13.9557 67.6666 13.8262 67.6668C13.7388 67.6694 13.6742 67.7045 13.6321 67.7707C13.5956 67.8281 13.5908 67.8936 13.6185 67.9677C13.6569 68.068 13.8577 68.3031 14.2208 68.6745C14.584 69.0459 14.8052 69.356 14.8835 69.6054C14.9604 69.8553 14.9167 70.1085 14.7546 70.3634C14.5784 70.6407 14.3112 70.8061 13.9536 70.8566C13.5968 70.9078 13.1921 70.7881 12.74 70.4965C12.3304 70.2323 12.059 69.9393 11.9252 69.6183C11.7924 69.298 11.7793 68.9712 11.8878 68.6379ZM17.9515 67.646L17.1315 69.2897C17.5685 69.101 17.9783 69.1027 18.3585 69.2953C18.5543 69.3944 18.7126 69.5198 18.8333 69.6714C18.9536 69.8241 19.0256 69.9756 19.0489 70.1297C19.0726 70.2828 19.0647 70.4352 19.0248 70.587C18.9861 70.7394 18.8944 70.9594 18.7506 71.2474L17.8111 73.1305L16.9686 72.704L17.8144 71.0087C17.9823 70.6722 18.0725 70.4502 18.0861 70.3432C18.0986 70.2358 18.0773 70.1345 18.0215 70.0403C17.9663 69.9451 17.8773 69.8663 17.7532 69.8036C17.6117 69.7319 17.4687 69.7022 17.3225 69.7149C17.1768 69.7264 17.0443 69.7887 16.924 69.9011C16.8033 70.012 16.6756 70.2034 16.5412 70.4728L15.7387 72.0814L14.8962 71.6549L17.109 67.2195L17.9515 67.646ZM24.8313 74.8399L24.0865 75.3948C23.8527 75.1876 23.6425 74.9329 23.4571 74.6312C23.2184 74.7521 22.9788 74.8236 22.7407 74.8464C22.5025 74.8693 22.2347 74.8394 21.936 74.7568C21.3453 74.5935 20.9465 74.3023 20.7393 73.8842C20.5786 73.5618 20.5449 73.2313 20.6369 72.8937C20.7207 72.5862 20.8868 72.3349 21.1361 72.1403C21.3843 71.9454 21.7144 71.8078 22.1253 71.7274C22.0156 71.4884 21.9432 71.2696 21.9094 71.0709C21.8744 70.8718 21.8788 70.6945 21.9216 70.5374C22.0005 70.2477 22.1827 70.0332 22.4677 69.8951C22.7517 69.7569 23.1079 69.7463 23.5326 69.8638C23.9419 69.977 24.2338 70.1716 24.4076 70.4462C24.581 70.7218 24.6259 71.011 24.5427 71.3163C24.4898 71.5102 24.3834 71.6784 24.222 71.8207C24.0607 71.963 23.778 72.0969 23.373 72.2211L23.7853 73.2876C23.9004 73.1709 24.0163 73.0076 24.1334 72.8004L24.9079 73.2147C24.7459 73.4862 24.6151 73.6826 24.5172 73.8016C24.4203 73.9211 24.3238 74.0178 24.2292 74.0899C24.3049 74.2139 24.408 74.3549 24.5382 74.5144C24.6684 74.6738 24.7661 74.7824 24.8313 74.8399ZM23.0631 71.5469L23.3595 71.424C23.5783 71.3324 23.7063 71.2168 23.7442 71.0775C23.7764 70.9594 23.7606 70.8471 23.6957 70.7405C23.6321 70.6331 23.5262 70.5594 23.378 70.5185C23.2341 70.4787 23.1114 70.4843 23.0097 70.534C22.9089 70.5852 22.8449 70.6586 22.8188 70.7543C22.7878 70.8681 22.819 71.024 22.9122 71.2236L23.0631 71.5469ZM22.4348 72.4468C22.1977 72.4962 22.0064 72.5824 21.8615 72.704C21.7177 72.826 21.6237 72.9654 21.5812 73.1213C21.5271 73.3197 21.5469 73.5001 21.6413 73.6604C21.7342 73.8215 21.8886 73.9313 22.1043 73.991C22.2458 74.0301 22.3906 74.0403 22.5366 74.0195C22.6837 73.9991 22.852 73.9449 23.0426 73.8563L22.4348 72.4468ZM26.9125 74.9621L27.8727 74.9302C27.891 75.1174 27.9556 75.2659 28.0675 75.3747C28.1782 75.4845 28.3447 75.5521 28.5645 75.5784C28.8071 75.6074 28.9946 75.5844 29.1282 75.5097C29.2177 75.4563 29.2687 75.3763 29.2811 75.2707C29.2894 75.1996 29.2737 75.1372 29.2348 75.0849C29.1933 75.0345 29.0936 74.9795 28.9363 74.9224C28.1986 74.6631 27.7372 74.4521 27.5508 74.289C27.2922 74.0615 27.1838 73.7762 27.2241 73.4332C27.2608 73.1222 27.4134 72.8763 27.6808 72.6942C27.9483 72.5119 28.3366 72.4513 28.8458 72.5122C29.331 72.5701 29.6827 72.6936 29.8997 72.8813C30.1166 73.0701 30.2517 73.3259 30.3036 73.6498L29.4025 73.7098C29.3814 73.5653 29.3212 73.4487 29.224 73.3614C29.1269 73.2742 28.9796 73.2194 28.7826 73.1959C28.5343 73.1662 28.3525 73.1794 28.2361 73.2364C28.1585 73.2771 28.1157 73.3372 28.1064 73.4153C28.0984 73.483 28.1225 73.5439 28.1796 73.5985C28.2575 73.6719 28.5399 73.7952 29.0277 73.9698C29.5153 74.1444 29.8486 74.3262 30.0272 74.5162C30.2045 74.7073 30.2748 74.9543 30.2394 75.2548C30.201 75.5819 30.0322 75.848 29.7322 76.0507C29.4334 76.2536 29.0174 76.3237 28.4843 76.26C28.0012 76.2023 27.6301 76.0579 27.3707 75.8279C27.1125 75.598 26.9593 75.3098 26.9125 74.9621ZM30.9816 72.8967L31.8482 72.9263L31.8317 73.4172C32.1552 73.0501 32.5318 72.8733 32.9617 72.8879C33.1898 72.8957 33.3866 72.9499 33.5508 73.0502C33.7161 73.1507 33.8489 73.2987 33.949 73.494C34.1126 73.3076 34.287 73.1702 34.4714 73.0816C34.6557 72.9931 34.8511 72.9524 35.0574 72.9594C35.3187 72.9683 35.5382 73.029 35.7169 73.1426C35.8944 73.2563 36.0245 73.4179 36.1068 73.6288C36.1671 73.7834 36.1909 74.0328 36.1794 74.3758L36.1022 76.6717L35.1598 76.6395L35.2287 74.5874C35.2408 74.2305 35.2163 73.9996 35.1544 73.8946C35.072 73.7565 34.9389 73.6837 34.7577 73.6775C34.6259 73.6731 34.4996 73.7092 34.38 73.7862C34.2614 73.8641 34.1726 73.9802 34.1158 74.1344C34.0588 74.2896 34.0254 74.5359 34.014 74.8743L33.956 76.5984L33.0137 76.5664L33.0799 74.5985C33.0916 74.2498 33.082 74.0228 33.0521 73.9212C33.0222 73.8184 32.9732 73.7404 32.9038 73.6884C32.8355 73.6364 32.74 73.6088 32.6197 73.6046C32.4741 73.5997 32.3421 73.6346 32.2237 73.7091C32.104 73.7848 32.0177 73.8951 31.9622 74.0424C31.9068 74.1897 31.8732 74.4359 31.8617 74.7802L31.803 76.5251L30.8607 76.4929L30.9816 72.8967ZM36.686 74.6893C36.6622 74.3736 36.7156 74.0624 36.8478 73.7556C36.9798 73.4476 37.1812 73.2062 37.452 73.029C37.7227 72.8517 38.0312 72.7492 38.3801 72.7224C38.9188 72.6811 39.3726 72.8236 39.7435 73.1496C40.1145 73.477 40.3197 73.9086 40.3605 74.4478C40.4016 74.9916 40.2619 75.4554 39.9424 75.8392C39.6218 76.223 39.1983 76.4352 38.6711 76.4756C38.345 76.5007 38.0282 76.4497 37.7208 76.3237C37.4144 76.1979 37.1726 75.9973 36.9964 75.7212C36.8203 75.4461 36.7172 75.1018 36.686 74.6893ZM37.6574 74.6657C37.6844 75.0218 37.7885 75.2884 37.9698 75.4645C38.1524 75.6417 38.3654 75.7204 38.6113 75.7015C38.856 75.6827 39.0548 75.5724 39.2063 75.3696C39.3578 75.1679 39.4204 74.8861 39.3932 74.5255C39.3665 74.174 39.2626 73.9097 39.0825 73.7335C38.9023 73.5561 38.6891 73.4775 38.4445 73.4963C38.1986 73.5151 37.9998 73.6254 37.8461 73.8285C37.6933 74.0302 37.6306 74.3097 37.6574 74.6657ZM40.6677 74.2801C40.6098 73.969 40.6292 73.6537 40.7273 73.3342C40.8251 73.0136 40.9992 72.7515 41.2491 72.5454C41.4991 72.3395 41.7947 72.2037 42.1385 72.1387C42.6695 72.0383 43.1361 72.1301 43.5401 72.4135C43.9443 72.698 44.1951 73.1044 44.2941 73.6359C44.3939 74.1719 44.3053 74.6484 44.0293 75.065C43.7521 75.4818 43.3541 75.7392 42.8345 75.8375C42.5131 75.8982 42.1927 75.8824 41.8734 75.791C41.5553 75.6996 41.2932 75.5268 41.0882 75.2716C40.8833 75.0177 40.7434 74.6867 40.6677 74.2801ZM41.6309 74.1498C41.6962 74.5008 41.8286 74.7543 42.0279 74.9095C42.2286 75.0655 42.4488 75.1204 42.6912 75.0745C42.9324 75.0289 43.1181 74.8974 43.2467 74.6792C43.3754 74.462 43.4071 74.1751 43.3409 73.8196C43.2764 73.4732 43.1444 73.2218 42.9463 73.0665C42.7479 72.91 42.5276 72.8552 42.2864 72.9008C42.0439 72.9467 41.8584 73.0781 41.7275 73.2968C41.5976 73.5142 41.5655 73.7989 41.6309 74.1498ZM45.9396 71.2355L46.1407 71.9635L45.5174 72.1382L45.9054 73.542C45.9842 73.8269 46.0355 73.9913 46.0607 74.0347C46.0857 74.0779 46.123 74.1094 46.1747 74.1286C46.225 74.1468 46.2802 74.1482 46.3409 74.1311C46.426 74.1072 46.5396 74.0442 46.6835 73.9402L46.9566 74.6313C46.7708 74.7819 46.5447 74.8943 46.2773 74.9693C46.1137 75.0153 45.959 75.0286 45.8121 75.0099C45.6653 74.9911 45.5492 74.9456 45.4641 74.8747C45.3775 74.8031 45.3027 74.6958 45.2365 74.5512C45.1883 74.4495 45.1186 74.2364 45.0285 73.9102L44.6092 72.393L44.1915 72.5101L43.9902 71.7821L44.408 71.665L44.2179 70.977L44.9767 70.1813L45.3163 71.4102L45.9396 71.2355ZM46.6296 69.5296L47.284 71.247C47.4397 70.7945 47.7169 70.4905 48.1143 70.3368C48.3189 70.2578 48.5174 70.2243 48.7101 70.2365C48.9031 70.2497 49.0628 70.2981 49.1915 70.3845C49.32 70.4698 49.4264 70.5784 49.5111 70.7103C49.5968 70.8417 49.6965 71.0581 49.8112 71.3591L50.5609 73.3268L49.6806 73.6672L49.0057 71.8959C48.8716 71.5441 48.7695 71.3275 48.7 71.2453C48.6296 71.1637 48.5409 71.1113 48.4342 71.0895C48.3272 71.0665 48.2094 71.0798 48.0798 71.1299C47.932 71.1871 47.8139 71.2736 47.7247 71.391C47.6351 71.5074 47.5916 71.648 47.5931 71.8132C47.5933 71.9778 47.6478 72.2018 47.7551 72.4833L48.3955 74.164L47.5152 74.5044L45.7494 69.87L46.6296 69.5296ZM49.7606 69.2111L49.4002 68.4089L50.2593 68.0173L50.6197 68.8195L49.7606 69.2111ZM51.4319 72.9314L49.9592 69.6532L50.8182 69.2616L52.291 72.5398L51.4319 72.9314ZM54.4123 70.1518L55.3059 69.8094C55.3765 70.1709 55.3439 70.4967 55.2108 70.7868C55.0761 71.0765 54.8398 71.3216 54.5023 71.5208C53.9667 71.8366 53.4672 71.8943 53.0057 71.6925C52.6381 71.5291 52.3286 71.2323 52.0776 70.8006C51.7785 70.2861 51.6774 69.8034 51.7745 69.3551C51.8708 68.9059 52.1237 68.5612 52.5315 68.3207C52.9889 68.0509 53.4388 67.9904 53.8815 68.1389C54.3232 68.2882 54.7217 68.681 55.0762 69.3182L53.0391 70.5199C53.1864 70.7597 53.362 70.9107 53.5665 70.9721C53.7701 71.0341 53.9658 71.0096 54.1519 70.8998C54.2796 70.8245 54.3662 70.7266 54.4118 70.606C54.4583 70.4848 54.4581 70.3336 54.4123 70.1518ZM53.9764 69.2921C53.8319 69.0574 53.666 68.9115 53.4783 68.8562C53.29 68.7998 53.1135 68.8209 52.9471 68.919C52.77 69.0236 52.6618 69.1758 52.6219 69.3748C52.5821 69.5737 52.6294 69.7854 52.7617 70.0086L53.9764 69.2921ZM58.0915 69.2296L55.0406 65.3312L55.7812 64.7432L56.8819 66.1498C56.9054 65.7058 57.0728 65.3596 57.3862 65.1106C57.7276 64.8396 58.1069 64.74 58.5256 64.8121C58.9443 64.8842 59.3365 65.154 59.7023 65.6213C60.0801 66.104 60.2577 66.5663 60.2343 67.0086C60.2102 67.45 60.0351 67.801 59.7099 68.0592C59.5494 68.1866 59.3592 68.27 59.1387 68.3112C58.9175 68.3515 58.6896 68.3382 58.4534 68.2699L58.7779 68.6845L58.0915 69.2296ZM57.6728 67.1829C57.9022 67.476 58.1186 67.6572 58.3198 67.724C58.6049 67.8214 58.8533 67.786 59.0668 67.6164C59.2307 67.4863 59.315 67.3046 59.3204 67.0707C59.3249 66.8376 59.2079 66.5687 58.97 66.2647C58.7164 65.9407 58.4754 65.754 58.2469 65.7029C58.0186 65.6518 57.8138 65.6981 57.6318 65.8426C57.4535 65.9842 57.3605 66.1714 57.3518 66.4049C57.3431 66.6384 57.4498 66.8979 57.6728 67.1829ZM60.246 64.3251L59.5258 64.8109C59.3537 64.4904 59.2947 64.1868 59.3482 63.9011C59.4017 63.6153 59.5958 63.3102 59.9299 62.9867C60.2334 62.6928 60.4943 62.5093 60.7123 62.4376C60.9294 62.3668 61.1219 62.3567 61.2888 62.4099C61.4556 62.463 61.681 62.6375 61.9657 62.9358L62.7188 63.7451C62.9358 63.9725 63.1071 64.1304 63.232 64.2178C63.3568 64.3053 63.5079 64.3819 63.6851 64.4475L63.0102 65.1009C62.9499 65.0727 62.864 65.0277 62.7541 64.9642C62.7045 64.9338 62.6707 64.9152 62.6538 64.9074C62.6478 65.1346 62.6056 65.3405 62.5281 65.526C62.4506 65.7117 62.3378 65.877 62.1882 66.0219C61.9243 66.2773 61.6468 66.4066 61.3564 66.4091C61.0667 66.4123 60.8157 66.3027 60.6042 66.0811C60.4651 65.9353 60.375 65.7709 60.3349 65.5887C60.2954 65.4073 60.3079 65.2253 60.3755 65.0428C60.4424 64.861 60.5718 64.6331 60.7638 64.3591C61.0241 63.9916 61.1908 63.7212 61.264 63.551L61.198 63.4818C61.0708 63.3486 60.9479 63.2849 60.8285 63.2898C60.7092 63.2964 60.5597 63.3866 60.3802 63.5603C60.2587 63.6781 60.1875 63.7936 60.1666 63.9083C60.1441 64.0231 60.1714 64.1617 60.246 64.3251ZM61.6884 63.9959C61.6295 64.1091 61.5247 64.2778 61.3743 64.5021C61.2247 64.7255 61.1388 64.8855 61.1175 64.9799C61.0902 65.1297 61.1219 65.2528 61.2149 65.3504C61.3071 65.447 61.4214 65.495 61.5592 65.4962C61.6972 65.4973 61.8206 65.4449 61.9306 65.3384C62.053 65.22 62.1315 65.0654 62.166 64.8766C62.1883 64.7347 62.1714 64.607 62.1111 64.4921C62.0728 64.417 61.9754 64.2966 61.8188 64.1325L61.6884 63.9959ZM64.8185 63.2642L64.1653 63.9493L61.5891 61.4567L62.1946 60.8218L62.5603 61.1755C62.4915 60.899 62.4719 60.6911 62.5016 60.5515C62.5312 60.412 62.5992 60.2872 62.705 60.1764C62.8543 60.0197 63.0412 59.9105 63.2647 59.8479L63.6561 60.6351C63.4711 60.679 63.3315 60.7504 63.2369 60.8496C63.1447 60.9463 63.0933 61.0536 63.0818 61.1707C63.0712 61.2886 63.1155 61.4323 63.2162 61.6034C63.317 61.7747 63.5867 62.0724 64.0243 62.4958L64.8185 63.2642Z" fill="#2B2A29"/>
</svg>
