<svg width="34" height="26" fill="none" xmlns="http://www.w3.org/2000/svg"><path d="M33.154.692H.846V25.25h32.308V.692zM2.465 2.302h29.077v3.643H2.465V2.302zM31.542 23.64H2.465V10.83h29.077v12.81zM17.36 14.803H5.513a.753.753 0 01-.747-.596.71.71 0 01.413-.769.722.722 0 01.305-.063H17.33a.75.75 0 01.747.593.711.711 0 01-.412.771.722.722 0 01-.306.064zm-5.945 3.211H5.513a.753.753 0 01-.747-.596.71.71 0 01.413-.768.72.72 0 01.305-.063h5.89a.75.75 0 01.748.596.71.71 0 01-.406.765.72.72 0 01-.302.066zm17.3 1.916h-7.36v-7.315h7.36v7.315zm-5.924-1.427h4.488v-4.46H22.79v4.46z" fill="#6B9D52"/></svg>