<svg width="46" height="36" fill="none" xmlns="http://www.w3.org/2000/svg"><path d="M28.233 19.78h8.76a5.862 5.862 0 005.857-5.855v-2.467a5.863 5.863 0 00-5.857-5.856h-8.76a5.863 5.863 0 00-5.857 5.856v2.467a5.863 5.863 0 005.857 5.856zm-3.857-8.322a3.861 3.861 0 013.857-3.856h8.76a3.861 3.861 0 013.857 3.856v2.467a3.86 3.86 0 01-3.857 3.856h-8.76a3.861 3.861 0 01-3.857-3.856v-2.467z" fill="#6B9D52"/><path d="M44.576 20.752H17.96a5.005 5.005 0 01-3.794-1.254 3.482 3.482 0 01-.865-2.302l3.44-10.888h1.527a2.973 2.973 0 002.953-3.055A2.973 2.973 0 0018.267.197H6.449a3.055 3.055 0 100 6.11h2.189C7.258 9.076 4.17 15.234 1.86 19.545c-3.329 6.43.135 9.16.284 9.273a1 1 0 00.605.203h.645l-.001.028a6.755 6.755 0 0013.51 0v-.028h13.314l-.001.028a6.702 6.702 0 009.28 6.24 6.703 6.703 0 004.127-6.24v-.028h.953a1.001 1.001 0 001-1v-6.268a1 1 0 00-1-1zm-1 2v4.268h-.29c-.028-.08-.067-.156-.097-.235a6.652 6.652 0 00-.533-1.092c-.014-.023-.024-.047-.038-.07a6.843 6.843 0 00-.609-.812 6.997 6.997 0 00-.812-.802c-.037-.031-.07-.066-.11-.097-.263-.21-.54-.4-.832-.57-.07-.042-.143-.079-.215-.118a6.853 6.853 0 00-.769-.358c-.064-.026-.125-.055-.19-.078-.03-.01-.06-.026-.09-.037h4.585zM3.63 20.477C6.686 14.773 11.103 5.84 11.147 5.75a1 1 0 00-.896-1.442H6.449a1.055 1.055 0 110-2.11h11.818a.98.98 0 01.953 1.055.978.978 0 01-.953 1.055h-2.26a1 1 0 00-.954.698l-3.7 11.716a.988.988 0 00-.043.215 5.495 5.495 0 001.364 3.895 6.85 6.85 0 005.285 1.92h16.786c-.026.009-.05.022-.077.031-.06.021-.115.049-.173.072a6.631 6.631 0 00-.762.356c-.073.04-.146.078-.218.121a6.726 6.726 0 00-.812.563c-.036.03-.068.063-.103.093a6.767 6.767 0 00-.8.807 6.785 6.785 0 00-.592.81c-.01.018-.019.037-.03.055a6.792 6.792 0 00-.53 1.114c-.03.083-.07.162-.097.246H16.565c-.023-.067-.059-.127-.083-.192a6.454 6.454 0 00-.19-.44 6.597 6.597 0 00-.286-.558 6.832 6.832 0 00-1.394-1.693c-.119-.105-.236-.209-.362-.306a6.996 6.996 0 00-.522-.358c-.131-.083-.258-.169-.394-.243a6.835 6.835 0 00-.6-.279c-.134-.058-.264-.122-.402-.17a6.716 6.716 0 00-.71-.195c-.12-.028-.236-.068-.358-.09a6.214 6.214 0 00-2.232 0c-.122.022-.238.062-.359.09-.24.052-.476.117-.709.194-.138.049-.268.114-.403.171a6.87 6.87 0 00-.599.28c-.136.073-.263.16-.394.242a6.946 6.946 0 00-.522.358c-.126.097-.243.201-.362.306a6.93 6.93 0 00-.45.43 6.838 6.838 0 00-.944 1.262 6.624 6.624 0 00-.286.56 6.505 6.505 0 00-.19.439c-.024.065-.06.125-.083.192h-.57c-.504-.61-1.593-2.562.469-6.543zm6.518 13.326a4.76 4.76 0 01-4.755-4.755c-.01-.238.007-.477.052-.711a.95.95 0 00.032-.12 4.767 4.767 0 019.343 0c.008.04.018.08.032.12.044.234.062.473.051.71a4.76 4.76 0 01-4.755 4.756zm26.72 0a4.71 4.71 0 01-4.652-4.755c-.01-.238.007-.476.052-.71a.88.88 0 00.032-.122 4.71 4.71 0 014.568-3.82 4.833 4.833 0 014.672 3.82c.008.04.018.08.031.12.045.234.063.473.052.712a4.76 4.76 0 01-4.755 4.755z" fill="#6B9D52"/></svg>