<svg width="34" height="35" fill="none" xmlns="http://www.w3.org/2000/svg"><path d="M32.325 8.727h-1.412L22.57.481a.7.7 0 00-.498-.201.73.73 0 00-.499.2L13.23 8.728H1.425a.7.7 0 00-.702.694v16a.7.7 0 00.702.693h1.412l8.35 8.246c.14.139.316.201.498.201a.726.726 0 00.499-.2l8.35-8.247h11.79a.7.7 0 00.703-.694v-16a.696.696 0 00-.702-.693zM22.072 1.951l6.854 6.77H15.218l6.854-6.77zM11.678 32.883l-6.854-6.769H18.54l-6.862 6.769zm19.945-8.163H2.128V10.114h29.495V24.72z" fill="#6B9D52"/><path d="M28.89 13.991c-.048 0-.09.007-.126.007-1.018 0-1.847-.818-1.847-1.824 0-.042 0-.09.007-.146a.697.697 0 00-.695-.749H7.6a.7.7 0 00-.513.222.697.697 0 00-.183.527c.007.056.007.104.007.146 0 1.006-.829 1.824-1.847 1.824-.056 0-.112 0-.176-.007a.706.706 0 00-.772.694v5.153a.69.69 0 00.232.513.734.734 0 00.54.18c.064-.007.12-.007.176-.007 1.018 0 1.847.819 1.847 1.824 0 .125-.014.257-.042.382a.697.697 0 00.14.582c.134.16.337.257.548.257h18.722a.72.72 0 00.548-.257.692.692 0 00.14-.582 1.763 1.763 0 01-.042-.382c0-1.005.83-1.824 1.847-1.824.035 0 .078 0 .127.007a.697.697 0 00.526-.187.694.694 0 00.225-.506V14.69a.669.669 0 00-.225-.506.702.702 0 00-.533-.194zm-.652 5.18c-1.49.244-2.64 1.485-2.718 3.004H8.3c-.077-1.54-1.264-2.802-2.788-3.017V15.35c1.412-.2 2.543-1.297 2.753-2.69h17.283c.21 1.366 1.306 2.455 2.683 2.683v3.829h.007z" fill="#6B9D52"/><path d="M16.875 13.651c-2.107 0-3.813 1.692-3.813 3.766s1.713 3.766 3.813 3.766 3.814-1.692 3.814-3.766-1.707-3.766-3.814-3.766zm0 6.145c-1.327 0-2.409-1.068-2.409-2.379 0-1.31 1.082-2.379 2.41-2.379 1.327 0 2.408 1.068 2.408 2.379 0 1.31-1.081 2.379-2.409 2.379zm-7.303-4.342c-1.096 0-1.988.881-1.988 1.963s.892 1.963 1.988 1.963c1.095 0 1.987-.881 1.987-1.963s-.892-1.963-1.987-1.963zm0 2.539a.578.578 0 01-.583-.576c0-.319.26-.576.583-.576.323 0 .583.257.583.576 0 .32-.26.576-.583.576zm14.775-2.539c-1.095 0-1.987.881-1.987 1.963s.892 1.963 1.987 1.963c1.096 0 1.988-.881 1.988-1.963s-.892-1.963-1.988-1.963zm0 2.539a.578.578 0 01-.583-.576c0-.319.26-.576.583-.576.323 0 .583.257.583.576a.582.582 0 01-.583.576z" fill="#6B9D52"/></svg>