<svg width="35" height="31" fill="none" xmlns="http://www.w3.org/2000/svg"><path d="M12.567 4.83h-.72V3.368h.72c.383 0 .75-.155 1.02-.43.27-.274.423-.646.423-1.035V1.17h1.442v.732a2.95 2.95 0 01-.845 2.071 2.863 2.863 0 01-2.04.858zm10.818 0h-.722a2.863 2.863 0 01-2.04-.857 2.951 2.951 0 01-.844-2.07V1.17h1.442v.732c0 .389.152.761.423 1.036.27.274.637.429 1.02.429h.72V4.83zm-5.77 9.519a4.28 4.28 0 01-2.403-.74 4.38 4.38 0 01-1.594-1.972 4.455 4.455 0 01-.246-2.538 4.413 4.413 0 011.184-2.25 4.307 4.307 0 012.215-1.202c.84-.17 1.71-.082 2.5.25a4.35 4.35 0 011.942 1.618 4.441 4.441 0 01-.54 5.546 4.299 4.299 0 01-3.058 1.288zm0-7.322c-.57 0-1.128.172-1.602.494a2.92 2.92 0 00-1.063 1.314 2.97 2.97 0 00-.164 1.692c.112.568.386 1.09.79 1.5.403.41.917.688 1.477.801.56.113 1.14.055 1.666-.166a2.894 2.894 0 001.295-1.08 2.96 2.96 0 00-.359-3.697 2.863 2.863 0 00-2.04-.858z" fill="#6B9D52"/><path d="M23.385 20.938H11.846a.716.716 0 01-.51-.214.738.738 0 01-.211-.518V1.17a.74.74 0 01.211-.518.716.716 0 01.51-.214h11.539a.72.72 0 01.51.214.738.738 0 01.21.518v19.036a.74.74 0 01-.21.518.716.716 0 01-.51.214zm-10.818-1.464h10.096V1.902H12.567v17.572z" fill="#6B9D52"/><path d="M21.221 20.206H19.78v-.732c0-.777.304-1.522.845-2.071a2.863 2.863 0 012.04-.858h.72v1.464h-.72c-.383 0-.75.155-1.02.43-.27.274-.423.646-.423 1.035v.732zm-5.769 0H14.01v-.732c0-.389-.152-.761-.423-1.036a1.431 1.431 0 00-1.02-.429h-.72v-1.464h.72c.765 0 1.5.309 2.04.858.541.55.845 1.294.845 2.07v.733z" fill="#6B9D52"/><path d="M25.548 19.474H9.683v1.464h15.865v-1.464z" fill="#6B9D52"/><path d="M34.202 30.456H1.029a.716.716 0 01-.51-.215.738.738 0 01-.211-.517V10.688a.74.74 0 01.211-.518.716.716 0 01.51-.214h10.817v1.464H1.75v17.571h31.73v-17.57H23.386V9.955h10.817c.191 0 .375.077.51.214a.738.738 0 01.211.518v19.036c0 .194-.076.38-.211.517a.716.716 0 01-.51.215z" fill="#6B9D52"/><path d="M34.202 30.456H1.029a.716.716 0 01-.51-.215.738.738 0 01-.211-.517v-5.858c0-.194.076-.38.211-.517a.716.716 0 01.51-.215h33.173c.191 0 .375.077.51.215a.738.738 0 01.211.517v5.858c0 .194-.076.38-.211.517a.716.716 0 01-.51.215zM1.75 28.99h31.73V24.6H1.75v4.392z" fill="#6B9D52"/><path d="M6.077 26.063H3.192v1.464h2.885v-1.464zm2.885 0H7.519v1.464h1.443v-1.464zm8.653 4.393c-.713 0-1.41-.215-2.003-.617a3.65 3.65 0 01-1.328-1.643 3.713 3.713 0 01-.205-2.115c.14-.71.482-1.363.987-1.875a3.59 3.59 0 011.846-1.001 3.556 3.556 0 012.083.208 3.619 3.619 0 011.618 1.348 3.7 3.7 0 01-.45 4.621 3.583 3.583 0 01-2.548 1.074zm0-5.857a2.14 2.14 0 00-1.201.37 2.19 2.19 0 00-.797.985 2.228 2.228 0 00.469 2.394 2.132 2.132 0 002.358.476 2.17 2.17 0 00.97-.809 2.22 2.22 0 00-.269-2.773 2.147 2.147 0 00-1.53-.643zm10.097 1.464h-1.443v1.464h1.443v-1.464zm4.327 0h-2.885v1.464h2.885v-1.464zM4.635 15.08H3.192v-1.464c0-.194.076-.38.212-.517a.716.716 0 01.51-.215h1.442v1.465h-.721v.732zm27.403 0h-1.442v-.731h-.721v-1.465h1.442c.192 0 .375.077.51.215a.738.738 0 01.211.517v1.465z" fill="#6B9D52"/></svg>