<svg width="34" height="34" fill="none" xmlns="http://www.w3.org/2000/svg"><path d="M32.48 3.497H17l-.673-2.188a.676.676 0 00-.852-.427.673.673 0 00-.427.851l3.365 10.097a.674.674 0 00.411.417c3.473 1.238 8.979 3.985 8.979 6.058 0 .78-.31.99-.417 1.057-.734.484-2.45.053-3.366-.33a.672.672 0 00-.931.54c-.017.139.01.28.076.402 1.811 3.305 3.588 7.357 3.366 8.077a2.73 2.73 0 01-.815.754.455.455 0 00-.047-.12l-1.346-2.02a.673.673 0 00-1.117.747l1.346 2.02a.581.581 0 00.06.073c-.302.175-.625.35-.969.518l-1.346-2.019a.673.673 0 00-1.117.747l1.205 1.872c-.519.235-1.044.444-1.555.626l-1.252-1.878a.673.673 0 00-1.117.747l1.023 1.541a3.305 3.305 0 01-1.596.101c-1.628-.545-8.292-12.977-8.292-15.475a1.817 1.817 0 01.976-1.406.673.673 0 00.317-.869L5.504 1.262a.673.673 0 00-.882-.364.673.673 0 00-.357.882l.72 1.717H1.52a.673.673 0 00-.673.673V28.4a.673.673 0 00.673.673h12.567c1.346 2.114 2.598 3.702 3.365 3.958.274.086.56.127.848.122 2.659 0 7.7-2.538 9.093-4.08h5.089a.673.673 0 00.673-.673V4.17a.673.673 0 00-.673-.673zM2.193 27.728V4.843h3.366l3.877 9.18a2.913 2.913 0 00-1.185 2.262c0 1.73 2.504 7.21 5.008 11.443H2.192zm15.28-22.885h1.884v5.627L17.47 4.843zm14.336 22.885H27.81c-.142-1.683-1.501-4.624-2.693-6.96a4.086 4.086 0 003.002-.29 2.417 2.417 0 00.996-2.18c0-2.962-5.613-5.634-8.413-6.778V4.843h11.106v22.885z" fill="#6B9D52"/></svg>