<svg width="54" height="54" fill="none" xmlns="http://www.w3.org/2000/svg"><path d="M27 13c-7.737 0-14 6.27-14 14 0 7.737 6.27 14 14 14 7.737 0 14-6.27 14-14 0-7.737-6.27-14-14-14zm0 23.087A9.084 9.084 0 0117.913 27 9.085 9.085 0 0127 17.913 9.085 9.085 0 0136.087 27 9.083 9.083 0 0127 36.087z" fill="#6B9D52"/><path d="M38.133.17c-4.968-.232-17.273-.22-22.245 0-4.37.204-8.224 1.26-11.331 4.367C-.636 9.73.027 16.727.027 26.989c0 10.503-.584 17.338 4.53 22.452 5.213 5.211 12.312 4.53 22.452 4.53 10.404 0 13.995.006 17.674-1.418 5.002-1.941 8.778-6.412 9.147-14.442.233-4.97.22-17.273 0-22.246C53.384 6.386 48.297.638 38.133.17zm7.864 45.836c-3.404 3.404-8.127 3.1-19.053 3.1-11.25 0-15.761.167-19.053-3.134C4.1 42.2 4.786 36.14 4.786 26.953c0-12.43-1.275-21.383 11.2-22.022 2.867-.102 3.711-.135 10.927-.135l.101.067c11.99 0 21.397-1.255 21.962 11.218.129 2.846.158 3.701.158 10.906-.002 11.12.209 15.657-3.137 19.019z" fill="#6B9D52"/><path d="M41.5 16a3.5 3.5 0 100-7 3.5 3.5 0 000 7z" fill="#6B9D52"/></svg>