<svg width="52" height="32" fill="none" xmlns="http://www.w3.org/2000/svg"><path d="M43.15 18.227c-.841-1.061-.601-1.534 0-2.482.01-.011 6.95-9.601 7.665-12.853l.004-.002c.355-1.186 0-2.057-1.718-2.057h-5.685c-1.448 0-2.115.748-2.472 1.584 0 0-2.895 6.93-6.99 11.42-1.322 1.299-1.933 1.715-2.654 1.715-.356 0-.908-.416-.908-1.601V2.89c0-1.422-.405-2.057-1.604-2.057h-8.94c-.907 0-1.447.663-1.447 1.281 0 1.348 2.048 1.658 2.26 5.45v8.226c0 1.803-.327 2.134-1.053 2.134-1.932 0-6.623-6.957-9.403-14.92C9.644 1.46 9.095.837 7.638.837H1.95C.327.836 0 1.583 0 2.42c0 1.477 1.933 8.824 8.987 18.531 4.702 6.626 11.323 10.216 17.347 10.216 3.62 0 4.062-.798 4.062-2.169 0-6.331-.327-6.929 1.486-6.929.841 0 2.288.416 5.668 3.612 3.864 3.79 4.498 5.486 6.66 5.486h5.686c1.62 0 2.442-.798 1.97-2.37-1.081-3.309-8.388-10.114-8.717-10.57z" fill="#6B9D52"/></svg>