<svg width="33" height="54" viewBox="0 0 33 54" fill="none" xmlns="http://www.w3.org/2000/svg">
<path fill-rule="evenodd" clip-rule="evenodd" d="M19.7045 6.25434L21.4072 0.578774C21.5104 0.235179 21.8267 0 22.1853 0H31.9309C32.3795 0 32.743 0.363417 32.743 0.812078C32.743 1.26074 32.3795 1.62416 31.9309 1.62416H22.7898L21.1365 7.13481C24.0233 9.1964 25.9723 12.487 26.2194 16.2422H27.0584C27.5067 16.2422 27.8705 16.606 27.8705 17.0547V25.1758C27.8705 25.6241 27.5067 25.9879 27.0584 25.9879H26.1353L22.177 52.9056C22.1183 53.3042 21.7762 53.5995 21.3736 53.5995H6.75512C6.35208 53.5995 6.00996 53.3042 5.95164 52.9056L1.993 25.9879H1.07026C0.621595 25.9879 0.258179 25.6241 0.258179 25.1758V17.0547C0.258179 16.606 0.621595 16.2422 1.07026 16.2422H1.90888C2.32688 9.89329 7.60914 4.87231 14.0646 4.87231C16.1 4.87231 18.0187 5.37144 19.705 6.25385L19.7045 6.25434ZM7.45694 51.9761H20.6722L24.4937 25.9877H3.63469L7.45694 51.9761ZM1.88274 17.8673V24.3643H26.2458V17.8673H1.88274ZM20.6389 8.79393L18.4045 16.2428H24.5912C24.362 13.23 22.868 10.5702 20.6389 8.79393ZM19.2283 7.84426C17.7017 6.98658 15.94 6.49756 14.0646 6.49756C8.50683 6.49756 3.95237 10.7916 3.53792 16.2432H16.7092L19.2283 7.84426ZM14.0646 42.2306C11.3734 42.2306 9.19176 40.0489 9.19176 37.3581C9.19176 34.6669 11.3734 32.4853 14.0646 32.4853C16.7554 32.4853 18.937 34.6669 18.937 37.3581C18.937 40.0489 16.7554 42.2306 14.0646 42.2306ZM14.0646 40.6064C15.8585 40.6064 17.3129 39.152 17.3129 37.358C17.3129 35.5638 15.8585 34.1094 14.0646 34.1094C12.2703 34.1094 10.8159 35.5638 10.8159 37.358C10.8159 39.1519 12.2703 40.6064 14.0646 40.6064Z" fill="white"/>
</svg>
