<svg width="38" height="45" viewBox="0 0 38 45" fill="none" xmlns="http://www.w3.org/2000/svg">
<path d="M24.7003 20.1676H35.6252V13.515H24.7003V20.1676ZM35.6252 22.3851V43.452C35.6252 44.0642 35.1361 44.5605 34.5329 44.5605H3.94111C3.33789 44.5605 2.84843 44.0642 2.84843 43.452V22.3851H1.75613C1.15254 22.3851 0.663452 21.8887 0.663452 21.2762V12.4061C0.663452 11.7939 1.15254 11.2972 1.75613 11.2972H11.4365L6.12815 9.75808C4.18684 9.19677 2.84834 7.39621 2.84834 5.34777C2.84834 0.618889 8.62376 -1.58332 11.6944 1.97431L19.2366 10.7226L26.7797 1.97393C29.8499 -1.58332 35.6249 0.618889 35.6249 5.34777C35.6249 7.3963 34.2868 9.19679 32.3462 9.75808L27.0372 11.2972H36.7175C37.3208 11.2972 37.8102 11.7939 37.8102 12.4061V21.2762C37.8102 21.8887 37.3208 22.3851 36.7175 22.3851H35.6252ZM2.84862 20.1676H13.7745V13.515H2.84862V20.1676ZM15.9593 13.515V20.1676H22.5146V13.515H19.2611C19.2446 13.5154 19.2282 13.5154 19.2117 13.515H15.9593ZM22.5146 22.3851H15.9593V42.3429H22.5146V22.3851ZM24.6999 22.3851V42.3429H33.4402V22.3851H24.6999ZM13.7741 22.3851H5.03379V42.3429H13.7741V22.3851ZM10.0505 3.43552C8.30883 1.41749 5.03379 2.66668 5.03379 5.34815C5.03379 6.4062 5.72481 7.33614 6.72787 7.6261L15.9756 10.308L10.0505 3.43552ZM31.7467 7.62572C32.749 7.33615 33.4401 6.4062 33.4401 5.34815C33.4401 2.66666 30.1649 1.41749 28.4237 3.43514L22.4984 10.3079L31.7467 7.62572Z" fill="white"/>
</svg>
