<svg width="32" height="57" viewBox="0 0 32 57" fill="none" xmlns="http://www.w3.org/2000/svg">
<path d="M27.264 -0.359863H4.73601C2.4735 -0.359863 0.640015 1.47362 0.640015 3.73614V52.3979C0.640015 54.6604 2.4735 56.4939 4.73601 56.4939H27.264C29.5265 56.4939 31.36 54.6604 31.36 52.3979L31.3596 3.73614C31.3596 1.47362 29.5261 -0.359863 27.2636 -0.359863H27.264ZM16.0001 54.679C14.5269 54.679 13.3332 53.4853 13.3332 52.0129C13.3332 50.5397 14.5269 49.346 16.0001 49.346C17.472 49.346 18.6662 50.5397 18.6662 52.0129C18.6662 53.4853 17.4729 54.679 16.0001 54.679ZM28.8001 45.9968C28.8001 46.8437 28.1108 47.5329 27.264 47.5329L4.73601 47.5325C3.88913 47.5325 3.1999 46.8432 3.1999 45.9964V3.73581C3.1999 2.88893 3.88918 2.19969 4.73601 2.19969H27.264C28.1104 2.19969 28.7998 2.88897 28.7998 3.73581L28.8001 45.9968Z" fill="white"/>
</svg>
