<svg width="39" height="31" fill="none" xmlns="http://www.w3.org/2000/svg"><path d="M35.525 0H2.629C1.69 0 .822.454.352 1.192a2.193 2.193 0 000 2.385c.47.738 1.338 1.192 2.277 1.192h32.896c.939 0 1.807-.454 2.276-1.192.47-.738.47-1.647 0-2.385C37.331.454 36.464 0 35.525 0zm0 13.115H2.629c-.939 0-1.807.455-2.277 1.193a2.193 2.193 0 000 2.384c.47.738 1.338 1.193 2.277 1.193h32.896c.939 0 1.807-.455 2.276-1.193.47-.738.47-1.646 0-2.384s-1.337-1.193-2.276-1.193zm2.629 15.5c0-.632-.277-1.239-.77-1.686a2.77 2.77 0 00-1.859-.698H2.63c-.939 0-1.807.454-2.277 1.192a2.193 2.193 0 000 2.385C.822 30.546 1.69 31 2.63 31h32.896c.697 0 1.366-.251 1.859-.699.493-.447.77-1.053.77-1.686z" fill="#2B2A29"/></svg>