<svg width="34" height="26" viewBox="0 0 34 26" fill="none" xmlns="http://www.w3.org/2000/svg">
<path d="M33.1539 0.692383H0.846191V25.2499H33.1539V0.692383ZM2.46517 2.30171H31.5421V5.94501H2.46517V2.30171ZM31.5421 23.6405H2.46517V10.8301H31.5421V23.6405ZM17.359 14.8017H5.51286C5.33805 14.8044 5.16778 14.7463 5.03145 14.6375C4.89512 14.5287 4.8013 14.376 4.76619 14.2058C4.74883 14.1027 4.75446 13.9971 4.78268 13.8964C4.81091 13.7957 4.86103 13.7024 4.92951 13.6231C4.99799 13.5438 5.08316 13.4804 5.179 13.4374C5.27484 13.3944 5.37901 13.3729 5.48414 13.3743H17.3303C17.5048 13.3708 17.675 13.4281 17.8114 13.5363C17.9478 13.6445 18.0418 13.7968 18.077 13.9667C18.0949 14.07 18.0897 14.176 18.0618 14.2772C18.0338 14.3783 17.9838 14.4721 17.9152 14.5518C17.8467 14.6315 17.7613 14.6952 17.6652 14.7384C17.569 14.7816 17.4645 14.8032 17.359 14.8017ZM11.4144 18.0132H5.51286C5.33805 18.0159 5.16778 17.9579 5.03145 17.8491C4.89512 17.7403 4.8013 17.5875 4.76619 17.4173C4.74883 17.3142 4.75446 17.2086 4.78268 17.1079C4.81091 17.0072 4.86103 16.9139 4.92951 16.8346C4.99799 16.7553 5.08316 16.6919 5.179 16.649C5.27484 16.606 5.37901 16.5844 5.48414 16.5859H11.3749C11.5499 16.5825 11.7205 16.6403 11.857 16.7492C11.9935 16.8581 12.0871 17.0112 12.1216 17.1818C12.1388 17.284 12.1334 17.3887 12.1058 17.4886C12.0782 17.5885 12.029 17.6812 11.9617 17.7603C11.8944 17.8394 11.8106 17.903 11.7161 17.9467C11.6216 17.9904 11.5186 18.0131 11.4144 18.0132ZM28.7134 19.9294H21.3544V12.6143H28.7134V19.9294ZM22.7903 18.5021H27.2775V14.0416H22.7903V18.5021Z" fill="#6B9D52"/>
</svg>
