<svg width="46" height="36" viewBox="0 0 46 36" fill="none" xmlns="http://www.w3.org/2000/svg">
<path d="M28.2325 19.7808H36.9932C38.5459 19.7792 40.0344 19.1617 41.1324 18.0638C42.2303 16.966 42.8479 15.4774 42.8497 13.9248V11.4576C42.8479 9.90492 42.2303 8.41638 41.1324 7.31854C40.0344 6.22069 38.5459 5.60321 36.9932 5.60156H28.2325C26.6799 5.60339 25.1915 6.22094 24.0937 7.31876C22.9958 8.41658 22.3783 9.90501 22.3765 11.4576V13.9248C22.3783 15.4774 22.9959 16.9658 24.0937 18.0636C25.1915 19.1614 26.6799 19.779 28.2325 19.7808ZM24.376 11.4576C24.3774 10.4352 24.7841 9.45513 25.5071 8.73227C26.23 8.0094 27.2101 7.60277 28.2325 7.60156H36.9932C38.0156 7.60277 38.9957 8.0094 39.7187 8.73226C40.4416 9.45513 40.8484 10.4352 40.8497 11.4576V13.9248C40.8484 14.9472 40.4416 15.9273 39.7187 16.6501C38.9957 17.373 38.0156 17.7796 36.9932 17.7808H28.2325C27.2101 17.7796 26.23 17.373 25.507 16.6501C24.7841 15.9273 24.3773 14.9472 24.376 13.9248L24.376 11.4576Z" fill="#6B9D52"/>
<path d="M44.5761 20.7515H17.959C17.2743 20.8144 16.584 20.7355 15.9311 20.5198C15.2783 20.304 14.6769 19.9561 14.1645 19.4976C13.6062 18.8611 13.299 18.0429 13.3003 17.1963L16.7393 6.30762H18.2666C18.6623 6.30508 19.0535 6.22358 19.4173 6.06789C19.7811 5.91221 20.1101 5.68547 20.3852 5.40097C20.6602 5.11647 20.8757 4.77994 21.019 4.41109C21.1623 4.04223 21.2305 3.64849 21.2197 3.25293C21.2306 2.85731 21.1624 2.46349 21.0191 2.09456C20.8759 1.72563 20.6604 1.389 20.3853 1.10442C20.1103 0.81983 19.7812 0.593005 19.4174 0.437235C19.0536 0.281464 18.6623 0.199882 18.2666 0.197271H6.44868C6.04701 0.196544 5.64913 0.275032 5.27782 0.428243C4.90651 0.581455 4.56906 0.806382 4.28477 1.09015C4.00049 1.37393 3.77495 1.71097 3.62107 2.082C3.46718 2.45303 3.38797 2.85077 3.38797 3.25245C3.38797 3.65412 3.46718 4.05186 3.62107 4.42289C3.77495 4.79392 4.00049 5.13097 4.28477 5.41474C4.56906 5.69851 4.90651 5.92344 5.27782 6.07665C5.64913 6.22986 6.04701 6.30835 6.44868 6.30762H8.63768C7.25877 9.07471 4.17039 15.2329 1.86033 19.5444C-1.46877 25.9736 1.9951 28.7036 2.14402 28.8169C2.31801 28.9487 2.53027 29.02 2.74852 29.02H3.39384L3.39305 29.0479C3.39523 30.838 4.10789 32.5541 5.37449 33.8191C6.64108 35.0842 8.35803 35.7948 10.1482 35.7948C11.9383 35.7948 13.6553 35.0842 14.9219 33.8191C16.1885 32.5541 16.9011 30.838 16.9033 29.0479L16.9025 29.02H30.2166L30.2158 29.0478C30.209 29.9325 30.3774 30.8097 30.7113 31.6289C31.0452 32.4482 31.5379 33.1932 32.161 33.8212C32.7842 34.4491 33.5255 34.9475 34.3421 35.2876C35.1588 35.6277 36.0347 35.8028 36.9194 35.8028C37.804 35.8028 38.68 35.6277 39.4966 35.2876C40.3133 34.9475 41.0546 34.4491 41.6777 33.8212C42.3009 33.1932 42.7936 32.4482 43.1275 31.6289C43.4613 30.8097 43.6298 29.9325 43.623 29.0478L43.6222 29.02H44.5761C44.7075 29.02 44.8375 28.9942 44.9589 28.944C45.0802 28.8937 45.1904 28.82 45.2833 28.7272C45.3762 28.6343 45.4498 28.5241 45.5001 28.4027C45.5503 28.2814 45.5762 28.1513 45.5761 28.02V21.7515C45.5762 21.6201 45.5503 21.4901 45.5001 21.3687C45.4498 21.2474 45.3762 21.1371 45.2833 21.0443C45.1904 20.9514 45.0802 20.8778 44.9588 20.8275C44.8375 20.7773 44.7075 20.7514 44.5761 20.7515ZM43.5761 22.7515V27.02H43.2851C43.2578 26.9394 43.2195 26.8641 43.1892 26.785C43.1565 26.6998 43.1223 26.6163 43.0863 26.5328C42.963 26.2431 42.8193 25.9626 42.6563 25.6933C42.6423 25.6705 42.6318 25.6459 42.6175 25.6232C42.4351 25.3378 42.2318 25.0664 42.0092 24.8111C41.9535 24.7462 41.8958 24.6843 41.8377 24.6215C41.6375 24.404 41.4237 24.1995 41.1977 24.0091C41.1601 23.9776 41.1261 23.9427 41.0879 23.9121C40.8245 23.7021 40.5461 23.5114 40.2552 23.3416C40.1846 23.2999 40.1124 23.2631 40.0404 23.2241C39.7916 23.0888 39.5347 22.969 39.2711 22.8655C39.2071 22.8404 39.1457 22.8112 39.0809 22.788C39.0505 22.7771 39.0218 22.7619 38.9912 22.7515L43.5761 22.7515ZM3.62983 20.4766C6.68595 14.7725 11.103 5.84033 11.1474 5.75049C11.2228 5.59805 11.2581 5.42889 11.2499 5.25901C11.2417 5.08914 11.1902 4.92417 11.1005 4.77971C11.0107 4.63525 10.8856 4.51608 10.7369 4.43347C10.5883 4.35086 10.421 4.30754 10.2509 4.30762H6.44868C6.30984 4.30805 6.17228 4.28107 6.04389 4.22823C5.91549 4.1754 5.79879 4.09774 5.70046 3.99972C5.60213 3.90169 5.52412 3.78523 5.47089 3.657C5.41765 3.52876 5.39025 3.39129 5.39025 3.25245C5.39025 3.1136 5.41765 2.97613 5.47089 2.8479C5.52412 2.71966 5.60213 2.6032 5.70046 2.50517C5.79879 2.40715 5.91549 2.32949 6.04389 2.27666C6.17228 2.22382 6.30984 2.19684 6.44868 2.19727H18.2666C18.3996 2.2004 18.5307 2.23063 18.6517 2.28611C18.7727 2.3416 18.8811 2.42118 18.9703 2.51998C19.0595 2.61878 19.1276 2.73474 19.1705 2.86076C19.2134 2.98678 19.2301 3.12022 19.2197 3.25293C19.2301 3.38558 19.2133 3.51895 19.1704 3.64489C19.1275 3.77083 19.0593 3.8867 18.9701 3.98542C18.8809 4.08413 18.7725 4.16362 18.6515 4.21902C18.5306 4.27442 18.3996 4.30457 18.2666 4.30762H16.0063C15.7937 4.30762 15.5867 4.37536 15.4152 4.501C15.2437 4.62664 15.1167 4.80365 15.0527 5.00635L11.3525 16.7222C11.3305 16.792 11.3163 16.8641 11.31 16.937C11.2414 18.3633 11.7307 19.7603 12.6743 20.832C13.3692 21.5076 14.1996 22.028 15.1106 22.3589C16.0216 22.6897 16.9924 22.8235 17.959 22.7515H34.7451C34.7187 22.7606 34.6942 22.7738 34.668 22.7832C34.6088 22.8044 34.5531 22.8317 34.4946 22.8545C34.2335 22.9571 33.9792 23.0762 33.7332 23.211C33.66 23.251 33.5866 23.2894 33.515 23.3321C33.2309 23.4996 32.9596 23.6877 32.7031 23.895C32.6671 23.9244 32.6351 23.9583 32.5997 23.9885C32.3783 24.1781 32.1694 24.3818 31.9743 24.5983C31.9153 24.6633 31.8572 24.7277 31.8007 24.795C31.5835 25.05 31.3855 25.3206 31.2083 25.6048C31.1973 25.6227 31.1892 25.6423 31.1783 25.6604C31.0152 25.9362 30.8719 26.2233 30.7493 26.5194C30.7138 26.6037 30.6805 26.6882 30.6483 26.7742C30.6173 26.857 30.5785 26.9357 30.5507 27.0201H16.5649C16.5423 26.9535 16.5065 26.8935 16.4819 26.8279C16.4254 26.6775 16.3592 26.5337 16.2921 26.3886C16.204 26.1977 16.1115 26.011 16.0061 25.83C15.9253 25.691 15.8393 25.5577 15.7491 25.4252C15.6321 25.2534 15.5088 25.0885 15.3769 24.9282C15.2751 24.8044 15.1718 24.6842 15.0617 24.5678C14.9186 24.4164 14.7679 24.2754 14.6119 24.1374C14.4932 24.0324 14.3759 23.9282 14.2504 23.8314C14.0826 23.7021 13.9065 23.587 13.7276 23.4733C13.597 23.3902 13.4698 23.3044 13.3338 23.2302C13.1402 23.1244 12.938 23.0378 12.7347 22.951C12.6002 22.8935 12.4703 22.8289 12.3321 22.7801C12.0993 22.7026 11.8624 22.6379 11.6224 22.5863C11.502 22.5581 11.3858 22.5179 11.2636 22.4965C10.526 22.3619 9.77007 22.3619 9.03245 22.4965C8.90995 22.5179 8.79368 22.5583 8.67301 22.5865C8.43331 22.638 8.19662 22.7026 7.96401 22.7801C7.82583 22.8289 7.69588 22.8936 7.56142 22.951C7.35818 23.0378 7.15603 23.1244 6.96242 23.2301C6.82642 23.3044 6.69918 23.3903 6.56842 23.4734C6.38959 23.587 6.2135 23.7021 6.04584 23.8314C5.92029 23.9281 5.80316 24.0323 5.68445 24.1373C5.52838 24.2753 5.37745 24.4165 5.23438 24.5679C5.12438 24.6842 5.02124 24.8043 4.9195 24.928C4.7876 25.0883 4.66425 25.2533 4.54724 25.4251C4.45697 25.5576 4.37097 25.691 4.29016 25.8299C4.18482 26.0109 4.09229 26.1976 4.00416 26.3885C3.93716 26.5336 3.87086 26.6775 3.8144 26.8278C3.78974 26.8934 3.75398 26.9535 3.7314 27.02H3.16059C2.65718 26.4102 1.56831 24.458 3.62983 20.4766ZM10.148 33.8027C8.8873 33.8014 7.67866 33.3 6.78724 32.4086C5.89582 31.5171 5.39443 30.3085 5.39307 29.0479C5.3825 28.8097 5.39987 28.5711 5.44482 28.3369C5.45803 28.2974 5.46863 28.2572 5.47656 28.2163C5.69478 27.1382 6.27917 26.1687 7.13063 25.4723C7.98209 24.776 9.04821 24.3955 10.1482 24.3955C11.2482 24.3955 12.3143 24.776 13.1658 25.4723C14.0172 26.1687 14.6016 27.1382 14.8198 28.2163C14.8278 28.2572 14.8384 28.2974 14.8516 28.3369C14.8965 28.5711 14.9139 28.8097 14.9033 29.0479C14.9019 30.3086 14.4004 31.5172 13.5089 32.4086C12.6174 33.3 11.4087 33.8014 10.148 33.8027ZM36.8682 33.8027C35.6212 33.7876 34.4311 33.2786 33.5589 32.3872C32.6867 31.4958 32.2037 30.2949 32.2158 29.0479C32.2052 28.81 32.2226 28.5717 32.2676 28.3378C32.2812 28.2981 32.292 28.2575 32.2998 28.2163C32.5046 27.1506 33.0711 26.1884 33.9035 25.4922C34.7359 24.796 35.7831 24.4086 36.8682 24.3955C37.9648 24.4078 39.0247 24.7928 39.8737 25.4871C40.7227 26.1815 41.3102 27.1439 41.54 28.2163C41.548 28.2566 41.5584 28.2964 41.5712 28.3354C41.6162 28.5701 41.6335 28.8092 41.623 29.0479C41.6216 30.3085 41.1202 31.5171 40.2288 32.4086C39.3374 33.3 38.1288 33.8014 36.8681 33.8027H36.8682Z" fill="#6B9D52"/>
</svg>
