<svg width="34" height="35" viewBox="0 0 34 35" fill="none" xmlns="http://www.w3.org/2000/svg">
<path d="M32.3249 8.72707H30.9134L22.5705 0.480911C22.4371 0.349139 22.2615 0.279785 22.0719 0.279785C21.8823 0.279785 21.7067 0.356074 21.5733 0.480911L13.2304 8.72707H1.42541C1.03916 8.72707 0.723145 9.03916 0.723145 9.42061V25.4205C0.723145 25.802 1.03916 26.114 1.42541 26.114H2.83695L11.1868 34.3602C11.3273 34.4989 11.5029 34.5613 11.6854 34.5613C11.868 34.5613 12.0436 34.492 12.184 34.3602L20.5339 26.114H32.3249C32.7111 26.114 33.0272 25.802 33.0272 25.4205V9.42061C33.0272 9.03222 32.7111 8.72707 32.3249 8.72707ZM22.0719 1.95121L28.926 8.72013H15.2178L22.0719 1.95121ZM11.6784 32.883L4.82435 26.114H18.5395L11.6784 32.883ZM31.6226 24.72H20.232H3.12488H2.12767V10.1141H13.5183H30.6254H31.6226V24.72Z" fill="#6B9D52"/>
<path d="M28.8908 13.991C28.8416 13.991 28.7995 13.998 28.7644 13.998C27.7461 13.998 26.9174 13.1796 26.9174 12.174C26.9174 12.1323 26.9174 12.0838 26.9244 12.0283C26.9385 11.8341 26.8753 11.6469 26.7418 11.5012C26.6084 11.3556 26.4188 11.2793 26.2292 11.2793H7.59821C7.40157 11.2793 7.21196 11.3625 7.08555 11.5012C6.95212 11.6469 6.88892 11.8341 6.90297 12.0283C6.90999 12.0838 6.90999 12.1323 6.90999 12.174C6.90999 13.1796 6.08132 13.998 5.06304 13.998C5.00686 13.998 4.95068 13.998 4.88748 13.991C4.69084 13.9702 4.49421 14.0396 4.34674 14.1713C4.19926 14.3031 4.11499 14.4904 4.11499 14.6846V19.8376C4.11499 20.0317 4.19926 20.219 4.34674 20.3508C4.49421 20.4825 4.69084 20.545 4.88748 20.5311C4.95068 20.5242 5.00686 20.5242 5.06304 20.5242C6.08132 20.5242 6.90999 21.3425 6.90999 22.3482C6.90999 22.473 6.89594 22.6048 6.86785 22.7296C6.82572 22.9377 6.87488 23.1457 7.00831 23.3122C7.14174 23.4717 7.34539 23.5688 7.55607 23.5688H26.2783C26.489 23.5688 26.6927 23.4717 26.8261 23.3122C26.9595 23.1527 27.0087 22.9377 26.9666 22.7296C26.9385 22.6048 26.9244 22.473 26.9244 22.3482C26.9244 21.3425 27.7531 20.5242 28.7714 20.5242C28.8065 20.5242 28.8486 20.5242 28.8978 20.5311C29.0944 20.545 29.284 20.4756 29.4245 20.3438C29.5649 20.2121 29.6492 20.0317 29.6492 19.8376V14.6915C29.6492 14.4973 29.572 14.317 29.4245 14.1852C29.277 14.0465 29.0874 13.9772 28.8908 13.991ZM28.2377 19.1718C26.7489 19.4145 25.5972 20.6559 25.5199 22.1748H8.30047C8.22322 20.6351 7.0364 19.3729 5.51249 19.1579V15.3504C6.92403 15.1492 8.05467 14.0534 8.26535 12.6594H25.548C25.7587 14.0257 26.8542 15.1146 28.2306 15.3434V19.1718H28.2377Z" fill="#6B9D52"/>
<path d="M16.8753 13.6511C14.7685 13.6511 13.062 15.3434 13.062 17.417C13.062 19.4907 14.7755 21.1829 16.8753 21.1829C18.9751 21.1829 20.6886 19.4907 20.6886 17.417C20.6886 15.3434 18.9821 13.6511 16.8753 13.6511ZM16.8753 19.7959C15.548 19.7959 14.4665 18.7278 14.4665 17.417C14.4665 16.1062 15.548 15.0382 16.8753 15.0382C18.2026 15.0382 19.284 16.1062 19.284 17.417C19.284 18.7278 18.2026 19.7959 16.8753 19.7959Z" fill="#6B9D52"/>
<path d="M9.57163 15.4543C8.4761 15.4543 7.58423 16.3351 7.58423 17.4171C7.58423 18.499 8.4761 19.3798 9.57163 19.3798C10.6672 19.3798 11.559 18.499 11.559 17.4171C11.559 16.3351 10.6672 15.4543 9.57163 15.4543ZM9.57163 17.9927C9.24859 17.9927 8.98875 17.7361 8.98875 17.4171C8.98875 17.098 9.24859 16.8414 9.57163 16.8414C9.89467 16.8414 10.1545 17.098 10.1545 17.4171C10.1545 17.7361 9.89467 17.9927 9.57163 17.9927Z" fill="#6B9D52"/>
<path d="M24.3473 15.4543C23.2517 15.4543 22.3599 16.3351 22.3599 17.4171C22.3599 18.499 23.2517 19.3798 24.3473 19.3798C25.4428 19.3798 26.3347 18.499 26.3347 17.4171C26.3347 16.3351 25.4428 15.4543 24.3473 15.4543ZM24.3473 17.9927C24.0242 17.9927 23.7644 17.7361 23.7644 17.4171C23.7644 17.098 24.0242 16.8414 24.3473 16.8414C24.6703 16.8414 24.9301 17.098 24.9301 17.4171C24.9301 17.7361 24.6633 17.9927 24.3473 17.9927Z" fill="#6B9D52"/>
</svg>
