<svg width="35" height="31" viewBox="0 0 35 31" fill="none" xmlns="http://www.w3.org/2000/svg">
<path d="M12.5673 4.83088H11.8462V3.36659H12.5673C12.9499 3.36659 13.3167 3.21232 13.5872 2.93772C13.8577 2.66311 14.0097 2.29066 14.0097 1.90231V1.17017H15.452V1.90231C15.452 2.67901 15.148 3.42391 14.6071 3.97312C14.0661 4.52234 13.3324 4.83088 12.5673 4.83088Z" fill="#6B9D52"/>
<path d="M23.3847 4.83088H22.6635C21.8985 4.83088 21.1648 4.52234 20.6238 3.97312C20.0828 3.42391 19.7789 2.67901 19.7789 1.90231V1.17017H21.2212V1.90231C21.2212 2.29066 21.3732 2.66311 21.6437 2.93772C21.9142 3.21232 22.281 3.36659 22.6635 3.36659H23.3847V4.83088Z" fill="#6B9D52"/>
<path d="M17.6154 14.3487C16.7596 14.3487 15.923 14.0911 15.2115 13.6084C14.4999 13.1257 13.9453 12.4396 13.6178 11.6369C13.2903 10.8342 13.2046 9.95097 13.3716 9.09884C13.5385 8.24671 13.9506 7.46398 14.5558 6.84963C15.1609 6.23528 15.9319 5.8169 16.7712 5.6474C17.6106 5.4779 18.4806 5.56489 19.2712 5.89738C20.0619 6.22986 20.7376 6.7929 21.2131 7.51531C21.6885 8.23771 21.9423 9.08702 21.9423 9.95585C21.9412 11.1205 21.4849 12.2372 20.6737 13.0608C19.8625 13.8844 18.7626 14.3475 17.6154 14.3487ZM17.6154 7.02728C17.0449 7.02728 16.4871 7.19903 16.0128 7.52083C15.5384 7.84263 15.1687 8.30001 14.9503 8.83513C14.732 9.37026 14.6749 9.9591 14.7862 10.5272C14.8975 11.0953 15.1722 11.6171 15.5756 12.0267C15.9791 12.4362 16.4931 12.7151 17.0526 12.8281C17.6122 12.9411 18.1922 12.8832 18.7193 12.6615C19.2464 12.4398 19.6969 12.0645 20.0138 11.5829C20.3308 11.1013 20.5 10.5351 20.5 9.95585C20.5 9.17914 20.1961 8.43425 19.6551 7.88503C19.1141 7.33582 18.3804 7.02728 17.6154 7.02728Z" fill="#6B9D52"/>
<path d="M23.3846 20.938H11.8462C11.6549 20.938 11.4715 20.8608 11.3362 20.7235C11.201 20.5862 11.125 20.4 11.125 20.2058V1.17013C11.125 0.975955 11.201 0.789731 11.3362 0.652428C11.4715 0.515124 11.6549 0.437988 11.8462 0.437988H23.3846C23.5759 0.437988 23.7593 0.515124 23.8945 0.652428C24.0298 0.789731 24.1058 0.975955 24.1058 1.17013V20.2058C24.1058 20.4 24.0298 20.5862 23.8945 20.7235C23.7593 20.8608 23.5759 20.938 23.3846 20.938ZM12.5673 19.4737H22.6635V1.90227H12.5673V19.4737Z" fill="#6B9D52"/>
<path d="M21.2212 20.2059H19.7789V19.4737C19.7789 18.697 20.0828 17.9521 20.6238 17.4029C21.1648 16.8537 21.8985 16.5452 22.6635 16.5452H23.3847V18.0094H22.6635C22.281 18.0094 21.9142 18.1637 21.6437 18.4383C21.3732 18.7129 21.2212 19.0854 21.2212 19.4737V20.2059Z" fill="#6B9D52"/>
<path d="M15.452 20.2059H14.0097V19.4737C14.0097 19.0854 13.8577 18.7129 13.5872 18.4383C13.3167 18.1637 12.9499 18.0094 12.5673 18.0094H11.8462V16.5452H12.5673C13.3324 16.5452 14.0661 16.8537 14.6071 17.4029C15.148 17.9521 15.452 18.697 15.452 19.4737V20.2059Z" fill="#6B9D52"/>
<path d="M25.5481 19.4736H9.68274V20.9379H25.5481V19.4736Z" fill="#6B9D52"/>
<path d="M34.202 30.4558H1.02889C0.837631 30.4558 0.654203 30.3787 0.51896 30.2414C0.383718 30.1041 0.307739 29.9178 0.307739 29.7237V10.688C0.307739 10.4938 0.383718 10.3076 0.51896 10.1702C0.654203 10.0329 0.837631 9.95581 1.02889 9.95581H11.8462V11.4201H1.75005V28.9915H33.4808V11.4201H23.3847V9.95581H34.202C34.3932 9.95581 34.5767 10.0329 34.7119 10.1702C34.8471 10.3076 34.9231 10.4938 34.9231 10.688V29.7237C34.9231 29.9178 34.8471 30.1041 34.7119 30.2414C34.5767 30.3787 34.3932 30.4558 34.202 30.4558Z" fill="#6B9D52"/>
<path d="M34.202 30.4557H1.02889C0.837631 30.4557 0.654203 30.3786 0.51896 30.2413C0.383718 30.104 0.307739 29.9177 0.307739 29.7236V23.8664C0.307739 23.6722 0.383718 23.486 0.51896 23.3487C0.654203 23.2114 0.837631 23.1343 1.02889 23.1343H34.202C34.3932 23.1343 34.5767 23.2114 34.7119 23.3487C34.8471 23.486 34.9231 23.6722 34.9231 23.8664V29.7236C34.9231 29.9177 34.8471 30.104 34.7119 30.2413C34.5767 30.3786 34.3932 30.4557 34.202 30.4557ZM1.75005 28.9914H33.4808V24.5986H1.75005V28.9914Z" fill="#6B9D52"/>
<path d="M6.077 26.063H3.19238V27.5273H6.077V26.063Z" fill="#6B9D52"/>
<path d="M8.9616 26.063H7.51929V27.5273H8.9616V26.063Z" fill="#6B9D52"/>
<path d="M17.6154 30.4557C16.9023 30.4557 16.2051 30.241 15.6122 29.8388C15.0192 29.4365 14.557 28.8648 14.2841 28.1959C14.0112 27.527 13.9398 26.7909 14.0789 26.0808C14.2181 25.3707 14.5615 24.7184 15.0657 24.2065C15.57 23.6945 16.2125 23.3459 16.912 23.2046C17.6114 23.0634 18.3364 23.1359 18.9953 23.4129C19.6541 23.69 20.2173 24.1592 20.6135 24.7612C21.0097 25.3632 21.2212 26.071 21.2212 26.795C21.22 27.7655 20.8398 28.696 20.1638 29.3822C19.4878 30.0685 18.5714 30.4545 17.6154 30.4557ZM17.6154 24.5986C17.1875 24.5986 16.7692 24.7274 16.4135 24.9687C16.0577 25.2101 15.7804 25.5531 15.6166 25.9545C15.4529 26.3558 15.41 26.7974 15.4935 27.2235C15.577 27.6496 15.783 28.0409 16.0856 28.3481C16.3882 28.6553 16.7737 28.8645 17.1933 28.9492C17.613 29.034 18.048 28.9905 18.4433 28.8242C18.8387 28.658 19.1765 28.3765 19.4143 28.0153C19.652 27.6541 19.7789 27.2294 19.7789 26.795C19.7789 26.2125 19.5509 25.6538 19.1452 25.2419C18.7395 24.83 18.1892 24.5986 17.6154 24.5986Z" fill="#6B9D52"/>
<path d="M27.7116 26.063H26.2693V27.5273H27.7116V26.063Z" fill="#6B9D52"/>
<path d="M32.0386 26.063H29.1539V27.5273H32.0386V26.063Z" fill="#6B9D52"/>
<path d="M4.63469 15.0807H3.19238V13.6164C3.19238 13.4222 3.26836 13.236 3.4036 13.0987C3.53885 12.9614 3.72227 12.8843 3.91354 12.8843H5.35584V14.3486H4.63469V15.0807Z" fill="#6B9D52"/>
<path d="M32.0385 15.0807H30.5962V14.3486H29.875V12.8843H31.3173C31.5086 12.8843 31.692 12.9614 31.8272 13.0987C31.9625 13.236 32.0385 13.4222 32.0385 13.6164V15.0807Z" fill="#6B9D52"/>
</svg>
