<svg width="34" height="34" viewBox="0 0 34 34" fill="none" xmlns="http://www.w3.org/2000/svg">
<path d="M32.4808 3.49655H17L16.327 1.30896C16.2991 1.22499 16.255 1.14732 16.1972 1.08039C16.1393 1.01347 16.0688 0.958594 15.9898 0.918905C15.8301 0.838748 15.6451 0.825308 15.4755 0.881541C15.3059 0.937774 15.1656 1.05907 15.0855 1.21876C15.0053 1.37844 14.9919 1.56342 15.0481 1.73302L18.4135 11.8296C18.4461 11.9255 18.4999 12.0129 18.571 12.0852C18.6421 12.1575 18.7286 12.2127 18.8241 12.2469C22.2972 13.4854 27.8029 16.2317 27.8029 18.3048C27.8029 19.0856 27.4933 19.2943 27.3856 19.3616C26.652 19.8462 24.9356 19.4154 24.0202 19.0318C23.8917 18.9775 23.7494 18.9645 23.6131 18.9947C23.4769 19.0248 23.3533 19.0966 23.2597 19.2C23.1655 19.3033 23.1059 19.4333 23.089 19.572C23.0721 19.7107 23.0988 19.8513 23.1654 19.9741C24.976 23.279 26.7529 27.3311 26.5308 28.0513C26.3138 28.3557 26.0366 28.6123 25.7164 28.8052C25.7066 28.7628 25.6907 28.722 25.6693 28.6841L24.3231 26.6647C24.2197 26.5272 24.0676 26.4346 23.8979 26.4057C23.7283 26.3769 23.5541 26.4142 23.4111 26.5098C23.2681 26.6054 23.1671 26.7522 23.1289 26.92C23.0907 27.0878 23.1183 27.2638 23.2058 27.4119L24.552 29.4312C24.5701 29.4575 24.5904 29.4823 24.6125 29.5052C24.3097 29.6802 23.9866 29.8552 23.6433 30.0235L22.2972 28.0042C22.1937 27.8667 22.0416 27.774 21.872 27.7452C21.7023 27.7164 21.5281 27.7536 21.3851 27.8493C21.2421 27.9449 21.1411 28.0917 21.1029 28.2595C21.0648 28.4272 21.0923 28.6033 21.1798 28.7514L22.3847 30.6226C21.8664 30.8582 21.3414 31.0668 20.8298 31.2486L19.5779 29.3706C19.4745 29.2331 19.3224 29.1404 19.1527 29.1116C18.9831 29.0828 18.8089 29.12 18.6659 29.2157C18.5229 29.3113 18.4219 29.4581 18.3837 29.6259C18.3455 29.7936 18.3731 29.9697 18.4606 30.1178L19.4837 31.6592C18.9682 31.8228 18.4205 31.8575 17.8885 31.7601C16.2597 31.2149 9.59619 18.7827 9.59619 16.2855C9.63077 15.9889 9.73791 15.7053 9.90813 15.46C10.0784 15.2146 10.3064 15.015 10.5722 14.8787C10.7257 14.8017 10.8441 14.6689 10.9029 14.5074C10.9617 14.346 10.9565 14.1682 10.8885 14.0104L5.50388 1.26184C5.46999 1.17997 5.42027 1.10559 5.35757 1.04298C5.29487 0.980373 5.22042 0.930759 5.1385 0.896989C5.05658 0.863219 4.9688 0.845957 4.88019 0.846194C4.79158 0.84643 4.70389 0.864161 4.62215 0.898368C4.45801 0.968097 4.32825 1.10012 4.26137 1.26544C4.19448 1.43077 4.19594 1.61588 4.26542 1.78013L4.98561 3.49655H1.51927C1.34076 3.49655 1.16956 3.56746 1.04333 3.69369C0.917105 3.81992 0.846191 3.99113 0.846191 4.16965L0.846191 28.4013C0.846191 28.5799 0.917105 28.7511 1.04333 28.8773C1.16956 29.0035 1.34076 29.0744 1.51927 29.0744H14.0856C15.4318 31.188 16.6837 32.7765 17.451 33.0323C17.7254 33.1177 18.0117 33.1586 18.2991 33.1535C20.9577 33.1535 25.9991 30.6159 27.3923 29.0744H32.4808C32.6593 29.0744 32.8305 29.0035 32.9567 28.8773C33.083 28.7511 33.1539 28.5799 33.1539 28.4013V4.16965C33.1539 3.99113 33.083 3.81992 32.9567 3.69369C32.8305 3.56746 32.6593 3.49655 32.4808 3.49655ZM2.19235 27.7282V4.84275H5.55773L9.43465 14.0239C9.07852 14.2862 8.78678 14.6262 8.58154 15.0181C8.37629 15.4099 8.26293 15.8433 8.25004 16.2855C8.25004 18.0154 10.7539 23.4944 13.2577 27.7282H2.19235ZM17.4712 4.84275H19.3558V10.4699L17.4712 4.84275ZM31.8077 27.7282H27.8097C27.6683 26.0455 26.3087 23.104 25.1173 20.7684C26.1183 21.0583 27.1922 20.9547 28.1193 20.4789C28.4607 20.2335 28.7322 19.9032 28.9069 19.5208C29.0816 19.1383 29.1535 18.7168 29.1154 18.2981C29.1154 15.3364 23.502 12.6642 20.702 11.5199V4.84275H31.8077V27.7282Z" fill="#6B9D52"/>
</svg>
